<svg width="363" height="351" viewBox="0 0 363 351" fill="none" xmlns="http://www.w3.org/2000/svg">
<g clip-path="url(#clip0)">
<path d="M330.745 350.53V315.431C330.745 315.431 344.423 340.315 330.745 350.53Z" fill="#F1F1F1"/>
<path d="M331.59 350.524L305.734 326.787C305.734 326.787 333.315 333.539 331.59 350.524Z" fill="#F1F1F1"/>
<path d="M240.396 155.752L103.192 235.946C102.711 236.226 102.14 236.304 101.602 236.163C101.064 236.022 100.605 235.673 100.324 235.194L12.0923 84.2276C11.8123 83.7474 11.7343 83.1757 11.8753 82.638C12.0163 82.1004 12.3648 81.6406 12.8444 81.3595L150.049 1.16572C150.529 0.885776 151.101 0.807753 151.638 0.948764C152.176 1.08978 152.636 1.43831 152.917 1.9179L241.148 152.884C241.428 153.364 241.506 153.936 241.365 154.474C241.224 155.011 240.876 155.471 240.396 155.752Z" fill="white"/>
<path d="M240.396 155.752L103.192 235.946C102.711 236.226 102.14 236.304 101.602 236.163C101.064 236.022 100.605 235.673 100.324 235.194L12.0923 84.2276C11.8123 83.7474 11.7343 83.1757 11.8753 82.638C12.0163 82.1004 12.3648 81.6406 12.8444 81.3595L150.049 1.16572C150.529 0.885776 151.101 0.807753 151.638 0.948764C152.176 1.08978 152.636 1.43831 152.917 1.9179L241.148 152.884C241.428 153.364 241.506 153.936 241.365 154.474C241.224 155.011 240.876 155.471 240.396 155.752ZM13.2676 82.0836C12.9798 82.2522 12.7707 82.5281 12.6861 82.8507C12.6015 83.1733 12.6483 83.5163 12.8163 83.8044L101.048 234.771C101.216 235.058 101.492 235.268 101.815 235.352C102.137 235.437 102.48 235.39 102.768 235.222L239.973 155.028C240.261 154.859 240.47 154.584 240.554 154.261C240.639 153.938 240.592 153.595 240.424 153.307L152.193 2.34106C152.024 2.05329 151.748 1.84416 151.426 1.75955C151.103 1.67494 150.76 1.72177 150.472 1.88975L13.2676 82.0836Z" fill="#3F3D56"/>
<path d="M101.463 97.1177L67.4333 117.007C66.9531 117.287 66.3814 117.365 65.8438 117.224C65.3061 117.083 64.8463 116.735 64.5653 116.255L44.6762 82.2245C44.3963 81.7443 44.3183 81.1726 44.4593 80.635C44.6003 80.0973 44.9488 79.6375 45.4284 79.3564L79.458 59.4667C79.9382 59.1867 80.5098 59.1087 81.0475 59.2497C81.5851 59.3907 82.0449 59.7392 82.326 60.2188L102.215 94.2496C102.495 94.7298 102.573 95.3015 102.432 95.8392C102.291 96.3769 101.942 96.8367 101.463 97.1177ZM45.8516 80.0805C45.5638 80.2491 45.3547 80.525 45.2701 80.8476C45.1855 81.1702 45.2323 81.5132 45.4003 81.8013L65.2894 115.832C65.458 116.12 65.7338 116.329 66.0564 116.414C66.379 116.498 66.722 116.451 67.0102 116.283L101.04 96.3937C101.327 96.225 101.537 95.9492 101.621 95.6265C101.706 95.3039 101.659 94.9609 101.491 94.6728L81.6019 60.642C81.4333 60.3543 81.1575 60.1451 80.8349 60.0605C80.5123 59.9759 80.1693 60.0227 79.8811 60.1907L45.8516 80.0805Z" fill="#F2F2F2"/>
<path d="M94.1212 106.994L60.0916 126.884C59.6594 127.136 59.1449 127.206 58.661 127.079C58.1771 126.952 57.7633 126.638 57.5104 126.207L37.6213 92.1761C37.3694 91.7439 37.2992 91.2294 37.4261 90.7455C37.553 90.2615 37.8666 89.8477 38.2983 89.5948L72.3278 69.705C72.76 69.453 73.2745 69.3828 73.7584 69.5097C74.2423 69.6367 74.6561 69.9503 74.9091 70.382L94.7981 104.413C95.0501 104.845 95.1203 105.359 94.9934 105.843C94.8665 106.327 94.5528 106.741 94.1212 106.994Z" fill="#16586F"/>
<path d="M176.258 81.3287L69.8254 143.537C69.3933 143.79 68.8786 143.86 68.3946 143.733C67.9105 143.606 67.4967 143.292 67.2442 142.86C66.9917 142.428 66.9211 141.913 67.0481 141.429C67.175 140.945 67.4891 140.531 67.9211 140.279L174.354 78.0704C174.568 77.9454 174.804 77.8637 175.05 77.83C175.295 77.7964 175.545 77.8114 175.785 77.8743C176.025 77.9371 176.249 78.0466 176.447 78.1964C176.644 78.3462 176.81 78.5334 176.935 78.7474C177.06 78.9613 177.142 79.1978 177.176 79.4433C177.209 79.6888 177.194 79.9385 177.131 80.1782C177.068 80.4179 176.959 80.6429 176.809 80.8403C176.659 81.0377 176.472 81.2036 176.258 81.3287Z" fill="#CCCCCC"/>
<path d="M157.115 107.575L76.385 154.76C76.171 154.885 75.9346 154.967 75.6891 155C75.4436 155.034 75.1938 155.019 74.9542 154.956C74.4701 154.829 74.0563 154.515 73.8037 154.083C73.5512 153.651 73.4807 153.136 73.6076 152.652C73.7346 152.168 74.0486 151.754 74.4807 151.502L155.21 104.317C155.424 104.191 155.661 104.11 155.906 104.076C156.152 104.042 156.402 104.058 156.641 104.12C156.881 104.183 157.106 104.293 157.303 104.442C157.501 104.592 157.667 104.78 157.792 104.993C157.917 105.207 157.998 105.444 158.032 105.689C158.066 105.935 158.051 106.185 157.988 106.424C157.925 106.664 157.815 106.889 157.666 107.086C157.516 107.284 157.329 107.45 157.115 107.575V107.575Z" fill="#CCCCCC"/>
<path d="M151.775 40.269L104.713 67.7761C104.281 68.0286 103.766 68.0991 103.282 67.9722C102.798 67.8452 102.384 67.5312 102.132 67.0991C101.879 66.667 101.809 66.1523 101.936 65.6683C102.063 65.1842 102.377 64.7703 102.809 64.5178L149.871 37.0107C150.303 36.7582 150.818 36.6876 151.302 36.8146C151.541 36.8774 151.766 36.9869 151.964 37.1367C152.161 37.2865 152.327 37.4737 152.452 37.6877C152.577 37.9016 152.659 38.1381 152.693 38.3836C152.726 38.6291 152.711 38.8788 152.648 39.1185C152.585 39.3582 152.476 39.5832 152.326 39.7806C152.176 39.978 151.989 40.1439 151.775 40.269Z" fill="#CCCCCC"/>
<path d="M146.59 58.3568L111.273 78.999C111.059 79.1241 110.822 79.2057 110.577 79.2394C110.331 79.273 110.082 79.258 109.842 79.1951C109.602 79.1323 109.377 79.0228 109.18 78.873C108.982 78.7232 108.816 78.536 108.691 78.3221C108.566 78.1081 108.485 77.8716 108.451 77.6261C108.417 77.3806 108.432 77.1309 108.495 76.8912C108.558 76.6515 108.668 76.4265 108.817 76.2291C108.967 76.0317 109.154 75.8658 109.368 75.7408L144.685 55.0985C145.117 54.846 145.632 54.7754 146.116 54.9024C146.6 55.0293 147.014 55.3434 147.267 55.7755C147.519 56.2075 147.59 56.7222 147.463 57.2063C147.336 57.6904 147.022 58.1042 146.59 58.3568Z" fill="#CCCCCC"/>
<path d="M189.377 103.775L82.9435 165.983C82.5115 166.235 81.9968 166.306 81.5128 166.179C81.0287 166.052 80.6149 165.738 80.3623 165.306C80.1098 164.874 80.0393 164.359 80.1662 163.875C80.2932 163.391 80.6072 162.977 81.0393 162.725L187.472 100.516C187.904 100.264 188.419 100.193 188.903 100.32C189.387 100.447 189.801 100.761 190.053 101.193C190.306 101.625 190.376 102.14 190.25 102.624C190.123 103.108 189.809 103.522 189.377 103.775V103.775Z" fill="#CCCCCC"/>
<path d="M170.233 130.021L89.5031 177.206C89.2892 177.331 89.0527 177.412 88.8072 177.446C88.5617 177.48 88.312 177.465 88.0723 177.402C87.8326 177.339 87.6077 177.23 87.4103 177.08C87.2129 176.93 87.0469 176.743 86.9219 176.529C86.7969 176.315 86.7152 176.078 86.6815 175.833C86.6479 175.587 86.6629 175.338 86.7258 175.098C86.7886 174.858 86.8981 174.633 87.0479 174.436C87.1977 174.239 87.3849 174.073 87.5988 173.948L168.329 126.762C168.542 126.637 168.779 126.556 169.024 126.522C169.27 126.488 169.52 126.503 169.759 126.566C169.999 126.629 170.224 126.738 170.421 126.888C170.619 127.038 170.785 127.225 170.91 127.439C171.035 127.653 171.116 127.89 171.15 128.135C171.184 128.381 171.169 128.63 171.106 128.87C171.043 129.11 170.934 129.335 170.784 129.532C170.634 129.73 170.447 129.896 170.233 130.021V130.021Z" fill="#CCCCCC"/>
<path d="M202.495 126.22L96.0617 188.429C95.8478 188.554 95.6113 188.635 95.3658 188.669C95.1203 188.703 94.8706 188.688 94.6309 188.625C94.3912 188.562 94.1663 188.453 93.9689 188.303C93.7715 188.153 93.6055 187.966 93.4805 187.752C93.3555 187.538 93.2738 187.301 93.2401 187.056C93.2065 186.81 93.2215 186.561 93.2844 186.321C93.3472 186.081 93.4567 185.856 93.6065 185.659C93.7563 185.461 93.9435 185.295 94.1574 185.17L200.59 122.962C200.804 122.837 201.041 122.755 201.286 122.722C201.532 122.688 201.781 122.703 202.021 122.766C202.261 122.829 202.486 122.938 202.683 123.088C202.881 123.238 203.047 123.425 203.172 123.639C203.297 123.853 203.378 124.089 203.412 124.335C203.446 124.58 203.431 124.83 203.368 125.07C203.305 125.31 203.195 125.535 203.046 125.732C202.896 125.929 202.709 126.095 202.495 126.22Z" fill="#CCCCCC"/>
<path d="M209.054 137.443L102.621 199.652C102.407 199.777 102.171 199.858 101.925 199.892C101.68 199.926 101.43 199.911 101.19 199.848C100.951 199.785 100.726 199.675 100.528 199.526C100.331 199.376 100.165 199.189 100.04 198.975C99.915 198.761 99.8334 198.524 99.7997 198.279C99.7661 198.033 99.7811 197.784 99.8439 197.544C99.9068 197.304 100.016 197.079 100.166 196.882C100.316 196.684 100.503 196.518 100.717 196.393L207.15 134.185C207.364 134.06 207.6 133.978 207.846 133.945C208.091 133.911 208.341 133.926 208.581 133.989C208.82 134.052 209.045 134.161 209.243 134.311C209.44 134.461 209.606 134.648 209.731 134.862C209.856 135.076 209.938 135.312 209.972 135.558C210.005 135.803 209.99 136.053 209.927 136.293C209.864 136.532 209.755 136.757 209.605 136.955C209.455 137.152 209.268 137.318 209.054 137.443Z" fill="#CCCCCC"/>
<path d="M174.636 181.133C176.115 179.391 177.446 177.53 178.615 175.567C179.664 173.797 180.693 171.904 180.924 169.827C181.042 168.943 180.95 168.044 180.655 167.202C180.36 166.36 179.871 165.599 179.227 164.982C178.604 164.408 177.815 164.048 176.973 163.952C176.132 163.856 175.282 164.031 174.546 164.45C173.802 164.878 173.187 165.498 172.767 166.246C172.346 166.995 172.136 167.843 172.158 168.701C172.218 169.645 172.491 170.564 172.956 171.389C173.421 172.213 174.067 172.922 174.844 173.462C177.99 175.742 182.903 175.623 186.256 173.888C190.033 171.934 191.984 166.823 189.017 163.324C188.4 162.596 187.373 163.409 187.527 164.194C187.723 165.255 188.317 166.2 189.187 166.838C190.056 167.475 191.137 167.757 192.207 167.625C193.277 167.492 194.256 166.956 194.945 166.126C195.633 165.296 195.979 164.235 195.911 163.158L194.577 163.938C196.212 164.662 198.009 164.943 199.788 164.752C201.566 164.562 203.263 163.906 204.707 162.851C205.422 162.332 206.06 161.715 206.603 161.019C207.256 160.167 208.353 159.617 209.241 159.003L215.641 154.581C216.582 153.93 215.687 152.38 214.738 153.036L208.942 157.041C207.976 157.709 207.004 158.368 206.044 159.044C205.357 159.527 204.935 160.307 204.311 160.881C203.128 161.944 201.668 162.65 200.1 162.915C198.532 163.18 196.921 162.994 195.455 162.379C195.319 162.305 195.165 162.268 195.01 162.271C194.855 162.274 194.703 162.316 194.57 162.394C194.436 162.473 194.324 162.584 194.246 162.718C194.167 162.852 194.124 163.003 194.121 163.158C194.192 163.8 194.006 164.445 193.604 164.95C193.202 165.456 192.616 165.782 191.975 165.858C191.333 165.934 190.688 165.754 190.178 165.356C189.669 164.958 189.338 164.375 189.257 163.735L187.767 164.605C189.681 166.862 188.407 170.324 186.202 171.839C183.735 173.533 180.091 173.827 177.312 172.774C176.63 172.539 176.004 172.167 175.472 171.679C174.941 171.191 174.516 170.6 174.223 169.94C173.952 169.345 173.875 168.679 174.002 168.037C174.13 167.396 174.455 166.81 174.933 166.363C175.347 165.954 175.903 165.722 176.485 165.716C177.067 165.709 177.628 165.93 178.051 166.33C178.511 166.799 178.849 167.375 179.034 168.007C179.22 168.638 179.247 169.305 179.114 169.949C178.827 171.741 177.836 173.395 176.914 174.926C175.862 176.67 174.671 178.328 173.355 179.883C172.617 180.757 173.89 182.015 174.636 181.133L174.636 181.133Z" fill="#16586F"/>
<path d="M190.521 223.676C190.675 223.835 190.817 224.005 190.944 224.186L210.763 223.701L213.075 219.476L219.908 222.132L216.541 230.01C216.27 230.646 215.799 231.177 215.199 231.523C214.6 231.869 213.904 232.011 213.217 231.928L190.825 229.223C190.297 229.892 189.578 230.384 188.763 230.634C187.948 230.884 187.077 230.88 186.265 230.622C185.452 230.365 184.738 229.866 184.216 229.192C183.693 228.519 183.389 227.702 183.342 226.851C183.296 226.001 183.509 225.156 183.954 224.429C184.4 223.702 185.055 223.129 185.835 222.784C186.614 222.439 187.48 222.34 188.317 222.499C189.154 222.659 189.923 223.069 190.521 223.676Z" fill="#FFB7B7"/>
<path d="M255.129 344.044H248.612L245.512 318.907L255.13 318.908L255.129 344.044Z" fill="#FFB7B7"/>
<path d="M256.791 350.362L235.778 350.361V350.095C235.778 347.926 236.64 345.846 238.174 344.312C239.708 342.778 241.788 341.917 243.957 341.917H243.958L256.791 341.917L256.791 350.362Z" fill="#2F2E41"/>
<path d="M195.955 343.9L189.962 341.339L196.985 317.005L205.83 320.784L195.955 343.9Z" fill="#FFB7B7"/>
<path d="M195.002 350.362L175.679 342.107L175.783 341.862C176.635 339.867 178.245 338.293 180.258 337.485C182.271 336.677 184.522 336.702 186.517 337.554L186.518 337.554L198.319 342.596L195.002 350.362Z" fill="#2F2E41"/>
<path d="M223.453 229.121L222.981 236.758L236.756 238.232L251.169 239.775L246.927 228.179L223.453 229.121Z" fill="#FFB7B7"/>
<path d="M222.548 236.856L217.197 199.55L226.472 196.51L229.197 192.774L242.453 193.559L244.4 197.918L251.469 201.259L250.382 221.434L251.175 238.312L222.548 236.856Z" fill="#2F2E41"/>
<path d="M219.18 226.859L209.746 223.084L209.786 222.916C209.827 222.747 213.842 205.967 214.375 203.27C214.931 200.461 216.96 199.684 217.046 199.653L217.109 199.629L220.843 200.766L222.482 213.65L219.18 226.859Z" fill="#2F2E41"/>
<path d="M200.809 339.482L188.25 336.906L208.322 281.518L215.192 262.626C215.192 262.626 219.549 247.478 221.517 241.616L222.705 233.751L250.828 236.864C250.828 236.864 258.682 248.399 256.296 267.201L257.375 337.872L244.817 338.516L234.298 267.241L215.836 306.313C215.836 306.313 210.017 322.987 205.853 326.601L200.809 339.482Z" fill="#2F2E41"/>
<path d="M239.55 239.487C239.771 239.481 239.992 239.494 240.211 239.523L253.331 224.659L251.805 220.091L258.398 216.887L261.886 224.711C262.167 225.344 262.236 226.05 262.082 226.725C261.929 227.4 261.56 228.006 261.032 228.454L243.824 243.035C243.955 243.877 243.827 244.739 243.456 245.506C243.086 246.274 242.49 246.91 241.749 247.331C241.008 247.751 240.156 247.936 239.308 247.861C238.459 247.786 237.653 247.454 236.997 246.91C236.342 246.366 235.867 245.635 235.637 244.814C235.407 243.994 235.432 243.123 235.709 242.317C235.987 241.511 236.502 240.808 237.188 240.303C237.874 239.797 238.698 239.513 239.55 239.487Z" fill="#FFB7B7"/>
<path d="M252.284 226.106L246.812 213.232L248.946 204.265L251.246 201.359C251.414 201.287 251.596 201.251 251.779 201.252C251.962 201.254 252.143 201.294 252.31 201.369C253.159 201.71 253.881 202.757 254.457 204.479L259.586 219.089L252.284 226.106Z" fill="#2F2E41"/>
<path d="M223.89 188.004V178.298C223.89 174.849 225.26 171.541 227.699 169.102C230.138 166.663 233.446 165.292 236.895 165.292C240.344 165.292 243.652 166.663 246.091 169.102C248.53 171.541 249.9 174.849 249.9 178.298V188.004C249.9 188.467 249.715 188.911 249.388 189.238C249.06 189.566 248.616 189.75 248.153 189.751H225.637C225.173 189.75 224.729 189.566 224.402 189.238C224.074 188.911 223.89 188.467 223.89 188.004Z" fill="#2F2E41"/>
<path d="M234.222 189.525C239.489 189.525 243.757 185.256 243.757 179.989C243.757 174.723 239.489 170.454 234.222 170.454C228.956 170.454 224.688 174.723 224.688 179.989C224.688 185.256 228.956 189.525 234.222 189.525Z" fill="#FFB7B7"/>
<path d="M220.812 179.074C220.816 176.347 221.9 173.732 223.829 171.803C225.758 169.874 228.373 168.789 231.1 168.786H233.041C235.769 168.789 238.384 169.874 240.312 171.803C242.241 173.732 243.326 176.347 243.329 179.074V179.269H239.227L237.828 175.351L237.548 179.269H235.428L234.722 177.292L234.581 179.269H220.813L220.812 179.074Z" fill="#2F2E41"/>
<path d="M233.284 190.842C233.091 190.581 232.976 190.271 232.952 189.948C232.928 189.625 232.995 189.301 233.147 189.015C235.204 185.102 238.084 177.873 234.261 173.414L233.987 173.094H245.085V189.756L235.003 191.535C234.901 191.553 234.797 191.562 234.694 191.562C234.418 191.562 234.147 191.497 233.902 191.372C233.657 191.247 233.445 191.065 233.284 190.842Z" fill="#2F2E41"/>
<path d="M103.823 338.554L109.712 340.659L120.634 318.943L111.941 315.837L103.823 338.554Z" fill="#9F616A"/>
<path d="M100.28 343.726L103.008 336.094L114.606 340.239C116.565 340.942 118.165 342.393 119.056 344.274C119.946 346.155 120.054 348.312 119.356 350.273L119.27 350.513L100.28 343.726Z" fill="#2F2E41"/>
<path d="M142.12 344.379L148.374 344.379L151.35 320.255L142.119 320.255L142.12 344.379Z" fill="#9F616A"/>
<path d="M140.524 342.337L152.841 342.337H152.842C153.872 342.337 154.893 342.54 155.845 342.934C156.798 343.329 157.663 343.907 158.392 344.636C159.121 345.365 159.699 346.23 160.093 347.182C160.488 348.135 160.691 349.155 160.691 350.186V350.441L140.525 350.442L140.524 342.337Z" fill="#2F2E41"/>
<path d="M127.866 190.256L130.586 184.881C130.586 184.881 140.719 187.42 141.64 193.293L127.866 190.256Z" fill="#F1F1F1"/>
<path d="M116.644 251.712L124.041 292.99L104.4 327.725L116.134 332.316L136.029 298.646L138.58 289.463L140.11 337.418L150.692 337.097L155.544 292.319L147.762 250.691L116.644 251.712Z" fill="#2F2E41"/>
<path d="M130.685 261.47C119.819 261.47 112.919 259.391 112.765 259.359L112.515 259.305L118.175 233.062L118.429 208.856C118.429 198.598 125.181 191.035 126.117 190.337C126.275 189.715 126.567 189.134 126.972 188.636C127.378 188.137 127.887 187.734 128.465 187.453C130.716 186.431 133.468 187.657 133.584 187.71L141.844 190.807L141.882 190.921C141.982 191.215 152.861 226.93 152.861 226.93C152.861 226.93 152.202 258.136 151.973 259.158C151.973 259.158 136.723 261.47 130.685 261.47Z" fill="#3F3D56"/>
<path d="M139.034 183.189C145.2 183.189 150.198 178.19 150.198 172.025C150.198 165.859 145.2 160.861 139.034 160.861C132.869 160.861 127.871 165.859 127.871 172.025C127.871 178.19 132.869 183.189 139.034 183.189Z" fill="#9F616A"/>
<path opacity="0.2" d="M126.588 210.836L146.118 238.086L149.002 225.36L126.588 210.836Z" fill="black"/>
<path d="M187.818 229.377C187.269 229.811 186.631 230.12 185.95 230.282C185.268 230.443 184.56 230.453 183.874 230.311C183.188 230.168 182.542 229.878 181.981 229.459C181.419 229.04 180.957 228.503 180.626 227.886L163.815 230.576L167.457 222.514L182.862 221.195C183.936 220.707 185.151 220.63 186.277 220.978C187.404 221.326 188.364 222.076 188.974 223.084C189.585 224.093 189.805 225.29 189.592 226.45C189.379 227.61 188.748 228.651 187.818 229.377H187.818Z" fill="#9F616A"/>
<path d="M168.323 222.055L174.363 221.462L176.037 229.889L168.437 230.023L168.323 222.055Z" fill="#F1F1F1"/>
<path d="M173.275 232.825L143.693 230.19L128.756 206.435L128.71 206.225C128.286 204.284 128.583 202.255 129.545 200.518C130.507 198.78 132.069 197.452 133.939 196.781C135.808 196.11 137.858 196.143 139.705 196.873C141.553 197.603 143.071 198.981 143.977 200.749L152.745 217.853L170.442 220.528L173.275 232.825Z" fill="#3F3D56"/>
<path d="M129.526 181.718L138.791 182.05C139.356 182.07 140.889 175.975 141.09 174.71C141.248 173.887 141.701 173.15 142.364 172.636C143.026 172.122 143.853 171.867 144.69 171.919C145.383 171.984 147.132 170.688 148.937 169.154C152.363 166.241 152.185 160.769 148.421 158.308C148.318 158.241 148.217 158.179 148.118 158.124C145.744 156.794 142.966 156.348 140.245 156.314C137.779 156.283 135.242 156.594 133.069 157.761C129.174 159.854 127.1 164.428 126.918 168.847C126.736 173.266 128.153 177.587 129.76 181.707" fill="#2F2E41"/>
<path d="M361.797 350.88H1.0096C0.880923 350.88 0.757513 350.829 0.666522 350.738C0.575532 350.647 0.524414 350.523 0.524414 350.394C0.524414 350.266 0.575532 350.142 0.666522 350.051C0.757513 349.96 0.880923 349.909 1.0096 349.909H361.99C362.119 349.909 362.242 349.96 362.333 350.051C362.424 350.142 362.476 350.266 362.476 350.394C362.476 350.662 362.065 350.88 361.797 350.88Z" fill="#CBCBCB"/>
</g>
<defs>
<clipPath id="clip0">
<rect width="361.951" height="350" fill="white" transform="translate(0.524414 0.879639)"/>
</clipPath>
</defs>
</svg>
