<svg width="583" height="252" viewBox="0 0 583 252" fill="none" xmlns="http://www.w3.org/2000/svg">
<g clip-path="url(#clip0_2870_6580)">
<path opacity="0.1" d="M315.361 34.5521C292.057 34.5833 269.625 27.977 248.169 20.638C226.714 13.299 205.423 5.08085 182.552 1.59842C167.843 -0.640065 151.116 -0.434299 139.618 7.69345C128.551 15.5126 125.346 28.454 123.799 40.4102C122.637 49.4047 122.1 58.845 126.456 67.0725C129.48 72.784 134.655 77.4917 138.303 82.9352C151.035 101.872 143.378 126.062 131.004 145.438C125.202 154.529 118.406 163.243 114.019 172.855C109.633 182.467 107.834 193.366 112.308 202.853C116.741 212.256 126.755 219.08 137.502 223.741C159.325 233.225 184.734 235.258 209.46 236.041C264.194 237.777 319.034 234.235 373.727 230.694C393.967 229.384 414.297 228.066 434.119 224.271C445.125 222.167 456.457 219.043 464.261 212.197C474.166 203.505 476.192 189.313 468.984 179.112C456.897 162.002 425.025 158.775 416.358 140.263C411.579 130.071 415.7 118.383 421.77 108.559C434.79 87.4807 457.199 68.6001 457.577 45.0244C457.835 28.8343 446.182 13.0402 428.776 6.00368C410.531 -1.36648 385.655 0.529059 372.873 14.2655C359.729 28.4166 335.938 34.5303 315.361 34.5521Z" fill="#16586F"/>
<path d="M419.151 201.581C419.151 201.581 415.32 199.053 411.522 200.852C411.522 200.852 412.692 203.103 417.499 202.891L419.151 201.581Z" fill="#16586F"/>
<path d="M419.638 201.715C419.638 201.715 420.803 206.155 417.879 209.176C417.879 209.176 416.121 207.346 417.879 202.863L419.638 201.715Z" fill="#16586F"/>
<path d="M424.401 197.453C424.401 197.453 424.118 193.678 415.591 194.931C415.591 194.931 415.55 197.366 418.543 198.52C421.536 199.673 422.908 198.7 424.401 197.453Z" fill="#16586F"/>
<path d="M424.938 197.428C424.938 197.428 428.542 198.585 425.327 206.582C425.327 206.582 422.948 206.052 422.521 202.869C422.094 199.686 423.36 198.588 424.938 197.428Z" fill="#16586F"/>
<path d="M429.751 192.072C429.751 192.072 430.241 185.859 421.527 186.495C421.527 186.495 420.903 192.107 428.214 193.566L429.751 192.072Z" fill="#16586F"/>
<path d="M435.509 185.058C435.509 185.058 434.315 178.015 425.604 180.113C425.604 180.113 425.573 186.202 434.088 186.735L435.509 185.058Z" fill="#16586F"/>
<path d="M439.718 177.806C439.718 177.806 437.717 170.947 429.087 172.998C429.087 172.998 431.141 179.168 439.144 179.072L439.718 177.806Z" fill="#16586F"/>
<path d="M443.715 170.723C443.715 170.723 441.76 163.605 433.427 165.734C433.427 165.734 436.208 172.496 443.163 171.926L443.715 170.723Z" fill="#16586F"/>
<path d="M446.29 163.995C446.29 163.995 444.788 155.29 437.019 157.217C437.019 157.217 439.276 165.136 445.72 165.264L446.29 163.995Z" fill="#16586F"/>
<path d="M448.707 155.867C448.707 155.867 446.902 147.094 439.042 149.632C439.042 149.632 442.122 157.925 448.149 157.067L448.707 155.867Z" fill="#16586F"/>
<path d="M450.19 148.303C450.19 148.303 447.325 139.527 441.249 139.764C441.249 139.764 444.177 149.033 449.682 150.052L450.19 148.303Z" fill="#16586F"/>
<path d="M451.151 140.921C451.151 140.921 448.033 130.358 443.089 131.172C443.089 131.172 445.246 139.247 450.977 142.567L451.151 140.921Z" fill="#16586F"/>
<path d="M451.694 132.113C451.694 132.113 448.769 123.312 443.899 122.96C443.899 122.96 445.889 131.621 451.597 134.402L451.694 132.113Z" fill="#16586F"/>
<path d="M452.283 123.895C452.283 123.895 448.638 115.085 445.424 114.885C445.424 114.885 447.008 123.562 451.971 125.342L452.283 123.895Z" fill="#16586F"/>
<path d="M452.685 116.251C452.685 116.251 450.443 106.683 447.223 105.888C447.223 105.888 447.662 113.716 452.361 116.968L452.685 116.251Z" fill="#16586F"/>
<path d="M453.901 106.237C453.901 106.237 451.544 98.6078 448.935 97.4449C448.935 97.4449 449.449 106.439 453.299 108.101L453.901 106.237Z" fill="#16586F"/>
<path d="M454.908 99.6897L455.382 86.2401C455.382 86.2401 450.503 96.3788 454.556 102.05L454.908 99.6897Z" fill="#16586F"/>
<path d="M458.675 86.3118C458.675 86.3118 462.188 76.4912 463.039 75.9425C463.039 75.9425 456.149 82.315 456.823 90.5113L458.675 86.3118Z" fill="#16586F"/>
<path d="M429.988 192.026C429.988 192.026 436.168 191.218 435.984 199.951C435.984 199.951 430.4 200.861 428.576 193.637L429.988 192.026Z" fill="#16586F"/>
<path d="M435.803 184.821C435.803 184.821 442.942 184.799 442.35 193.737C442.35 193.737 436.355 194.81 434.378 186.51L435.803 184.821Z" fill="#16586F"/>
<path d="M439.788 178.383C439.788 178.383 446.269 175.343 450.416 183.19C450.416 183.19 444.43 185.722 439.214 179.651L439.788 178.383Z" fill="#16586F"/>
<path d="M443.859 170.788C443.859 170.788 450.497 167.555 454.394 175.218C454.394 175.218 447.479 177.6 443.311 172.001L443.859 170.788Z" fill="#16586F"/>
<path d="M446.206 164.185C446.206 164.185 452.594 158.083 457.692 164.253C457.692 164.253 451.166 169.276 445.913 165.544L446.206 164.185Z" fill="#16586F"/>
<path d="M448.345 155.658C448.345 155.658 454.771 149.423 459.827 155.945C459.827 155.945 452.616 161.067 448.114 156.967L448.345 155.658Z" fill="#16586F"/>
<path d="M449.546 148.054C449.546 148.054 454.497 140.26 460.327 142C460.327 142 455.189 150.252 449.602 149.884L449.546 148.054Z" fill="#16586F"/>
<path d="M451.005 140.871C451.005 140.871 455.993 131.057 460.713 132.765C460.713 132.765 457.115 140.31 450.877 142.526L451.005 140.871Z" fill="#16586F"/>
<path d="M451.35 131.602C451.35 131.602 456.479 123.877 461.283 124.821C461.283 124.821 457.09 132.656 450.852 133.837L451.35 131.602Z" fill="#16586F"/>
<path d="M451.75 123.724C451.75 123.724 455.725 115.053 458.955 114.994C458.955 114.994 457.047 123.602 452.018 125.195L451.75 123.724Z" fill="#16586F"/>
<path d="M452.529 116.064C452.529 116.064 456.947 107.284 460.267 107.266C460.267 107.266 458.007 114.773 452.676 116.834L452.529 116.064Z" fill="#16586F"/>
<path d="M453.193 106.785C453.193 106.785 456.498 99.5213 459.235 98.6982C459.235 98.6982 457.583 107.552 453.558 108.712L453.193 106.785Z" fill="#16586F"/>
<path d="M455.301 99.4247L462.687 88.1731C462.687 88.1731 460.795 99.272 454.223 101.579L455.301 99.4247Z" fill="#16586F"/>
<path d="M460.37 87.2191C460.37 87.2191 468.953 81.2955 469.265 80.3384C469.265 80.3384 464.9 88.6345 456.794 90.0998L460.37 87.2191Z" fill="#16586F"/>
<path d="M460.884 84.5534C460.884 84.5534 470.739 75.0788 473.255 75.0881C473.255 75.0881 465.128 75.4591 460.647 84.0483L460.884 84.5534Z" fill="#16586F"/>
<path d="M453.29 108.192L453.649 108.238C455.5 93.7443 458.2 85.1676 461.249 84.117L461.131 83.774C457.898 84.8964 455.179 93.3421 453.29 108.192Z" fill="#444053"/>
<path d="M450.564 142.854L451.107 142.897C451.222 141.544 451.31 140.16 451.369 138.779C451.886 126.782 452.688 115.764 453.741 107.506L453.43 107.116C452.373 115.393 451.344 126.742 450.826 138.757C450.767 140.129 450.68 141.507 450.564 142.854Z" fill="#444053"/>
<path d="M409.037 208.496C409.131 208.456 418.68 204.191 428.591 194.021C434.398 188.065 439.223 181.225 442.886 173.756C447.469 164.425 450.262 152.958 451.197 141.819L450.633 142.084C448.529 167.087 437.146 184.172 428.095 193.478C418.281 203.558 408.838 207.779 408.744 207.82L409.037 208.496Z" fill="#444053"/>
<path d="M433.764 26.9515H134.194C133.486 26.9515 132.808 27.2327 132.307 27.7332C131.807 28.2337 131.525 28.9125 131.525 29.6203V37.3957H436.433V29.6203C436.433 28.9125 436.152 28.2337 435.651 27.7332C435.151 27.2327 434.472 26.9515 433.764 26.9515Z" fill="#3F3D56"/>
<path d="M131.525 37.3956V212.371C131.525 213.799 132.092 215.167 133.101 216.176C134.111 217.186 135.479 217.753 136.906 217.753H431.052C432.479 217.753 433.848 217.186 434.857 216.176C435.866 215.167 436.433 213.799 436.433 212.371V37.3956H131.525Z" fill="white"/>
<path opacity="0.8" d="M136.354 33.3426C137.043 33.3426 137.602 32.7843 137.602 32.0956C137.602 31.4068 137.043 30.8485 136.354 30.8485C135.666 30.8485 135.107 31.4068 135.107 32.0956C135.107 32.7843 135.666 33.3426 136.354 33.3426Z" fill="#FA5959"/>
<path opacity="0.8" d="M139.783 33.3426C140.472 33.3426 141.03 32.7843 141.03 32.0956C141.03 31.4068 140.472 30.8485 139.783 30.8485C139.094 30.8485 138.536 31.4068 138.536 32.0956C138.536 32.7843 139.094 33.3426 139.783 33.3426Z" fill="#FED253"/>
<path opacity="0.8" d="M143.213 33.3426C143.902 33.3426 144.46 32.7843 144.46 32.0956C144.46 31.4068 143.902 30.8485 143.213 30.8485C142.524 30.8485 141.966 31.4068 141.966 32.0956C141.966 32.7843 142.524 33.3426 143.213 33.3426Z" fill="#8CCF4D"/>
<path opacity="0.05" d="M404.916 66.5708H159.867V174.323H404.916V66.5708Z" fill="black"/>
<path d="M403.045 67.3876H161.738V172.765H403.045V67.3876Z" fill="#5C8A9A"/>
<path d="M227.521 94.5082C222.773 94.5082 218.131 95.9161 214.184 98.5539C210.236 101.192 207.159 104.941 205.342 109.327C203.525 113.714 203.05 118.541 203.976 123.198C204.902 127.854 207.189 132.132 210.546 135.489C213.903 138.846 218.181 141.133 222.837 142.059C227.494 142.985 232.321 142.51 236.707 140.693C241.094 138.876 244.843 135.799 247.481 131.851C250.119 127.903 251.527 123.262 251.527 118.514C251.527 115.362 250.906 112.24 249.699 109.327C248.493 106.415 246.725 103.769 244.495 101.539C242.266 99.3102 239.62 97.5419 236.707 96.3355C233.795 95.1291 230.673 94.5082 227.521 94.5082ZM231.826 119.091V130.458H223.34V119.091C222.166 118.202 221.3 116.967 220.866 115.559C220.431 114.152 220.45 112.644 220.918 111.247C221.387 109.851 222.283 108.638 223.479 107.778C224.674 106.918 226.11 106.455 227.583 106.455C229.056 106.455 230.492 106.918 231.687 107.778C232.883 108.638 233.779 109.851 234.248 111.247C234.716 112.644 234.735 114.152 234.301 115.559C233.866 116.967 233.001 118.202 231.826 119.091Z" fill="#16586F"/>
<path opacity="0.05" d="M227.521 94.5082C222.773 94.5082 218.131 95.9161 214.184 98.5539C210.236 101.192 207.159 104.941 205.342 109.327C203.525 113.714 203.05 118.541 203.976 123.198C204.902 127.854 207.189 132.132 210.546 135.489C213.903 138.846 218.181 141.133 222.837 142.059C227.494 142.985 232.321 142.51 236.707 140.693C241.094 138.876 244.843 135.799 247.481 131.851C250.119 127.903 251.527 123.262 251.527 118.514C251.527 115.362 250.906 112.24 249.699 109.327C248.493 106.415 246.725 103.769 244.495 101.539C242.266 99.3102 239.62 97.5419 236.707 96.3355C233.795 95.1291 230.673 94.5082 227.521 94.5082ZM231.826 119.091V130.458H223.34V119.091C222.166 118.202 221.3 116.967 220.866 115.559C220.431 114.152 220.45 112.644 220.918 111.247C221.387 109.851 222.283 108.638 223.479 107.778C224.674 106.918 226.11 106.455 227.583 106.455C229.056 106.455 230.492 106.918 231.687 107.778C232.883 108.638 233.779 109.851 234.248 111.247C234.716 112.644 234.735 114.152 234.301 115.559C233.866 116.967 233.001 118.202 231.826 119.091Z" fill="black"/>
<path d="M227.521 87.6493C221.417 87.6493 215.449 89.4595 210.374 92.851C205.298 96.2424 201.342 101.063 199.006 106.703C196.67 112.343 196.058 118.548 197.249 124.536C198.44 130.523 201.38 136.022 205.696 140.339C210.013 144.655 215.513 147.595 221.5 148.786C227.487 149.977 233.693 149.366 239.333 147.03C244.972 144.693 249.793 140.737 253.184 135.662C256.576 130.586 258.386 124.619 258.386 118.514C258.386 110.328 255.134 102.478 249.346 96.6894C243.558 90.9011 235.707 87.6493 227.521 87.6493ZM233.055 119.256V133.869H222.143V119.256C220.633 118.113 219.519 116.524 218.96 114.715C218.401 112.905 218.425 110.965 219.028 109.169C219.631 107.373 220.783 105.812 222.321 104.706C223.858 103.6 225.705 103.005 227.599 103.005C229.493 103.005 231.34 103.6 232.878 104.706C234.416 105.812 235.567 107.373 236.17 109.169C236.773 110.965 236.797 112.905 236.238 114.715C235.679 116.524 234.565 118.113 233.055 119.256Z" fill="#16586F"/>
<path d="M370.933 114.464H271.168V125.064H370.933V114.464Z" fill="white"/>
<path d="M370.934 133.794H349.422V144.394H370.934V133.794Z" fill="#16586F"/>
<path d="M280.989 119.605H279.184L280.79 118.003C280.819 117.973 280.835 117.934 280.835 117.892C280.835 117.851 280.819 117.811 280.79 117.782C280.775 117.767 280.758 117.755 280.739 117.747C280.72 117.739 280.7 117.735 280.679 117.735C280.659 117.735 280.638 117.739 280.619 117.747C280.6 117.755 280.583 117.767 280.568 117.782L278.963 119.387V117.579C278.963 117.538 278.946 117.498 278.917 117.469C278.888 117.439 278.848 117.423 278.807 117.423C278.766 117.424 278.727 117.44 278.698 117.47C278.669 117.499 278.652 117.538 278.651 117.579V119.387L277.049 117.772C277.034 117.758 277.017 117.746 276.998 117.738C276.979 117.73 276.959 117.726 276.938 117.726C276.917 117.726 276.897 117.73 276.878 117.738C276.859 117.746 276.842 117.758 276.827 117.772C276.799 117.802 276.782 117.842 276.782 117.883C276.782 117.924 276.799 117.964 276.827 117.994L278.433 119.596H276.625C276.584 119.597 276.544 119.613 276.515 119.643C276.486 119.672 276.47 119.711 276.469 119.752C276.469 119.793 276.485 119.833 276.514 119.862C276.544 119.891 276.583 119.908 276.625 119.908H278.433L276.827 121.513C276.799 121.543 276.782 121.583 276.782 121.624C276.782 121.665 276.799 121.705 276.827 121.735C276.857 121.763 276.897 121.778 276.938 121.778C276.979 121.778 277.019 121.763 277.049 121.735L278.651 120.129V121.934C278.651 121.976 278.668 122.015 278.697 122.044C278.726 122.074 278.766 122.09 278.807 122.09C278.848 122.09 278.888 122.074 278.917 122.044C278.946 122.015 278.963 121.976 278.963 121.934V120.129L280.568 121.735C280.598 121.763 280.638 121.778 280.679 121.778C280.72 121.778 280.76 121.763 280.79 121.735C280.819 121.705 280.835 121.665 280.835 121.624C280.835 121.583 280.819 121.543 280.79 121.513L279.184 119.908H280.989C281.031 119.908 281.07 119.891 281.1 119.862C281.129 119.833 281.145 119.793 281.145 119.752C281.143 119.712 281.125 119.675 281.096 119.648C281.067 119.62 281.029 119.605 280.989 119.605Z" fill="#16586F"/>
<path d="M287.536 119.605H285.731L287.337 118.003C287.365 117.973 287.382 117.934 287.382 117.892C287.382 117.851 287.365 117.811 287.337 117.782C287.322 117.767 287.305 117.755 287.286 117.747C287.267 117.739 287.247 117.735 287.226 117.735C287.205 117.735 287.185 117.739 287.166 117.747C287.147 117.755 287.13 117.767 287.115 117.782L285.51 119.387V117.579C285.51 117.538 285.493 117.498 285.464 117.469C285.435 117.439 285.395 117.423 285.354 117.423C285.313 117.424 285.274 117.44 285.245 117.47C285.215 117.499 285.199 117.538 285.198 117.579V119.387L283.596 117.772C283.581 117.758 283.564 117.746 283.545 117.738C283.526 117.73 283.505 117.726 283.485 117.726C283.464 117.726 283.444 117.73 283.425 117.738C283.406 117.746 283.389 117.758 283.374 117.772C283.345 117.802 283.329 117.842 283.329 117.883C283.329 117.924 283.345 117.964 283.374 117.994L284.98 119.596H283.172C283.13 119.597 283.091 119.613 283.062 119.643C283.033 119.672 283.016 119.711 283.016 119.752C283.016 119.793 283.032 119.833 283.061 119.862C283.091 119.891 283.13 119.908 283.172 119.908H284.98L283.374 121.513C283.345 121.543 283.329 121.583 283.329 121.624C283.329 121.665 283.345 121.705 283.374 121.735C283.404 121.763 283.444 121.778 283.485 121.778C283.526 121.778 283.565 121.763 283.596 121.735L285.198 120.129V121.934C285.198 121.976 285.214 122.015 285.244 122.044C285.273 122.074 285.313 122.09 285.354 122.09C285.395 122.09 285.435 122.074 285.464 122.044C285.493 122.015 285.51 121.976 285.51 121.934V120.129L287.115 121.735C287.145 121.763 287.185 121.778 287.226 121.778C287.267 121.778 287.307 121.763 287.337 121.735C287.365 121.705 287.382 121.665 287.382 121.624C287.382 121.583 287.365 121.543 287.337 121.513L285.731 119.908H287.536C287.578 119.908 287.617 119.891 287.646 119.862C287.676 119.833 287.692 119.793 287.692 119.752C287.69 119.712 287.672 119.675 287.643 119.648C287.614 119.62 287.576 119.605 287.536 119.605Z" fill="#16586F"/>
<path d="M294.083 119.605H292.278L293.884 118.003C293.912 117.973 293.928 117.934 293.928 117.892C293.928 117.851 293.912 117.811 293.884 117.782C293.869 117.767 293.852 117.755 293.833 117.747C293.814 117.739 293.793 117.735 293.773 117.735C293.752 117.735 293.732 117.739 293.713 117.747C293.694 117.755 293.677 117.767 293.662 117.782L292.057 119.387V117.579C292.057 117.538 292.04 117.498 292.011 117.469C291.982 117.439 291.942 117.423 291.901 117.423C291.86 117.424 291.82 117.44 291.791 117.47C291.762 117.499 291.746 117.538 291.745 117.579V119.387L290.142 117.772C290.128 117.758 290.111 117.746 290.092 117.738C290.073 117.73 290.052 117.726 290.032 117.726C290.011 117.726 289.991 117.73 289.972 117.738C289.953 117.746 289.936 117.758 289.921 117.772C289.892 117.802 289.876 117.842 289.876 117.883C289.876 117.924 289.892 117.964 289.921 117.994L291.527 119.596H289.718C289.677 119.597 289.638 119.613 289.609 119.643C289.58 119.672 289.563 119.711 289.562 119.752C289.562 119.793 289.579 119.833 289.608 119.862C289.637 119.891 289.677 119.908 289.718 119.908H291.527L289.921 121.513C289.892 121.543 289.876 121.583 289.876 121.624C289.876 121.665 289.892 121.705 289.921 121.735C289.951 121.763 289.991 121.778 290.032 121.778C290.073 121.778 290.112 121.763 290.142 121.735L291.745 120.129V121.934C291.745 121.976 291.761 122.015 291.791 122.044C291.82 122.074 291.859 122.09 291.901 122.09C291.942 122.09 291.982 122.074 292.011 122.044C292.04 122.015 292.057 121.976 292.057 121.934V120.129L293.662 121.735C293.692 121.763 293.732 121.778 293.773 121.778C293.814 121.778 293.854 121.763 293.884 121.735C293.912 121.705 293.928 121.665 293.928 121.624C293.928 121.583 293.912 121.543 293.884 121.513L292.278 119.908H294.083C294.124 119.908 294.164 119.891 294.193 119.862C294.223 119.833 294.239 119.793 294.239 119.752C294.237 119.712 294.219 119.675 294.19 119.648C294.161 119.62 294.123 119.605 294.083 119.605Z" fill="#16586F"/>
<path d="M300.63 119.605H298.825L300.43 118.003C300.459 117.973 300.475 117.934 300.475 117.892C300.475 117.851 300.459 117.811 300.43 117.782C300.416 117.767 300.399 117.755 300.38 117.747C300.361 117.739 300.34 117.735 300.32 117.735C300.299 117.735 300.279 117.739 300.26 117.747C300.241 117.755 300.224 117.767 300.209 117.782L298.604 119.387V117.579C298.604 117.538 298.587 117.498 298.558 117.469C298.529 117.439 298.489 117.423 298.448 117.423C298.407 117.424 298.367 117.44 298.338 117.47C298.309 117.499 298.293 117.538 298.292 117.579V119.387L296.689 117.772C296.675 117.758 296.658 117.746 296.639 117.738C296.62 117.73 296.599 117.726 296.579 117.726C296.558 117.726 296.538 117.73 296.519 117.738C296.5 117.746 296.482 117.758 296.468 117.772C296.439 117.802 296.423 117.842 296.423 117.883C296.423 117.924 296.439 117.964 296.468 117.994L298.074 119.596H296.265C296.224 119.597 296.185 119.613 296.156 119.643C296.127 119.672 296.11 119.711 296.109 119.752C296.109 119.793 296.126 119.833 296.155 119.862C296.184 119.891 296.224 119.908 296.265 119.908H298.074L296.468 121.513C296.439 121.543 296.423 121.583 296.423 121.624C296.423 121.665 296.439 121.705 296.468 121.735C296.498 121.763 296.537 121.778 296.579 121.778C296.62 121.778 296.659 121.763 296.689 121.735L298.292 120.129V121.934C298.292 121.976 298.308 122.015 298.337 122.044C298.367 122.074 298.406 122.09 298.448 122.09C298.489 122.09 298.529 122.074 298.558 122.044C298.587 122.015 298.604 121.976 298.604 121.934V120.129L300.209 121.735C300.239 121.763 300.279 121.778 300.32 121.778C300.361 121.778 300.4 121.763 300.43 121.735C300.459 121.705 300.475 121.665 300.475 121.624C300.475 121.583 300.459 121.543 300.43 121.513L298.825 119.908H300.63C300.671 119.908 300.711 119.891 300.74 119.862C300.769 119.833 300.786 119.793 300.786 119.752C300.783 119.712 300.766 119.675 300.737 119.648C300.708 119.62 300.67 119.605 300.63 119.605Z" fill="#16586F"/>
<path d="M307.177 119.605H305.372L306.977 118.003C307.006 117.973 307.022 117.934 307.022 117.892C307.022 117.851 307.006 117.811 306.977 117.782C306.963 117.767 306.946 117.755 306.927 117.747C306.908 117.739 306.887 117.735 306.867 117.735C306.846 117.735 306.826 117.739 306.807 117.747C306.788 117.755 306.77 117.767 306.756 117.782L305.15 119.387V117.579C305.15 117.538 305.134 117.498 305.105 117.469C305.075 117.439 305.036 117.423 304.994 117.423C304.953 117.424 304.914 117.44 304.885 117.47C304.856 117.499 304.839 117.538 304.839 117.579V119.387L303.236 117.772C303.222 117.758 303.204 117.746 303.185 117.738C303.166 117.73 303.146 117.726 303.125 117.726C303.105 117.726 303.084 117.73 303.066 117.738C303.047 117.746 303.029 117.758 303.015 117.772C302.986 117.802 302.97 117.842 302.97 117.883C302.97 117.924 302.986 117.964 303.015 117.994L304.62 119.596H302.812C302.771 119.597 302.732 119.613 302.703 119.643C302.674 119.672 302.657 119.711 302.656 119.752C302.656 119.793 302.673 119.833 302.702 119.862C302.731 119.891 302.771 119.908 302.812 119.908H304.62L303.015 121.513C302.986 121.543 302.97 121.583 302.97 121.624C302.97 121.665 302.986 121.705 303.015 121.735C303.045 121.763 303.084 121.778 303.125 121.778C303.167 121.778 303.206 121.763 303.236 121.735L304.839 120.129V121.934C304.839 121.976 304.855 122.015 304.884 122.044C304.913 122.074 304.953 122.09 304.994 122.09C305.036 122.09 305.075 122.074 305.105 122.044C305.134 122.015 305.15 121.976 305.15 121.934V120.129L306.756 121.735C306.786 121.763 306.826 121.778 306.867 121.778C306.908 121.778 306.947 121.763 306.977 121.735C307.006 121.705 307.022 121.665 307.022 121.624C307.022 121.583 307.006 121.543 306.977 121.513L305.372 119.908H307.177C307.218 119.908 307.258 119.891 307.287 119.862C307.316 119.833 307.333 119.793 307.333 119.752C307.33 119.712 307.313 119.675 307.284 119.648C307.255 119.62 307.217 119.605 307.177 119.605Z" fill="#16586F"/>
<path d="M313.725 119.605H311.92L313.525 118.003C313.554 117.973 313.57 117.934 313.57 117.892C313.57 117.851 313.554 117.811 313.525 117.782C313.511 117.767 313.493 117.755 313.474 117.747C313.455 117.739 313.435 117.735 313.414 117.735C313.394 117.735 313.374 117.739 313.355 117.747C313.336 117.755 313.318 117.767 313.304 117.782L311.698 119.387V117.579C311.698 117.538 311.682 117.498 311.653 117.469C311.623 117.439 311.584 117.423 311.542 117.423C311.501 117.424 311.462 117.44 311.433 117.47C311.404 117.499 311.387 117.538 311.386 117.579V119.387L309.784 117.772C309.769 117.758 309.752 117.746 309.733 117.738C309.714 117.73 309.694 117.726 309.673 117.726C309.653 117.726 309.632 117.73 309.613 117.738C309.594 117.746 309.577 117.758 309.563 117.772C309.534 117.802 309.518 117.842 309.518 117.883C309.518 117.924 309.534 117.964 309.563 117.994L311.168 119.596H309.36C309.319 119.597 309.28 119.613 309.251 119.643C309.222 119.672 309.205 119.711 309.204 119.752C309.204 119.793 309.221 119.833 309.25 119.862C309.279 119.891 309.319 119.908 309.36 119.908H311.168L309.563 121.513C309.534 121.543 309.518 121.583 309.518 121.624C309.518 121.665 309.534 121.705 309.563 121.735C309.593 121.763 309.632 121.778 309.673 121.778C309.714 121.778 309.754 121.763 309.784 121.735L311.386 120.129V121.934C311.386 121.976 311.403 122.015 311.432 122.044C311.461 122.074 311.501 122.09 311.542 122.09C311.584 122.09 311.623 122.074 311.653 122.044C311.682 122.015 311.698 121.976 311.698 121.934V120.129L313.304 121.735C313.334 121.763 313.373 121.778 313.414 121.778C313.456 121.778 313.495 121.763 313.525 121.735C313.554 121.705 313.57 121.665 313.57 121.624C313.57 121.583 313.554 121.543 313.525 121.513L311.92 119.908H313.725C313.766 119.908 313.806 119.891 313.835 119.862C313.864 119.833 313.881 119.793 313.881 119.752C313.878 119.712 313.861 119.675 313.832 119.648C313.803 119.62 313.764 119.605 313.725 119.605Z" fill="#16586F"/>
<path d="M320.272 119.605H318.466L320.072 118.003C320.101 117.973 320.117 117.934 320.117 117.892C320.117 117.851 320.101 117.811 320.072 117.782C320.058 117.767 320.04 117.755 320.021 117.747C320.002 117.739 319.982 117.735 319.961 117.735C319.941 117.735 319.92 117.739 319.901 117.747C319.882 117.755 319.865 117.767 319.851 117.782L318.245 119.387V117.579C318.245 117.538 318.229 117.498 318.199 117.469C318.17 117.439 318.131 117.423 318.089 117.423C318.048 117.424 318.009 117.44 317.98 117.47C317.951 117.499 317.934 117.538 317.933 117.579V119.387L316.331 117.772C316.316 117.758 316.299 117.746 316.28 117.738C316.261 117.73 316.241 117.726 316.22 117.726C316.2 117.726 316.179 117.73 316.16 117.738C316.141 117.746 316.124 117.758 316.109 117.772C316.081 117.802 316.065 117.842 316.065 117.883C316.065 117.924 316.081 117.964 316.109 117.994L317.715 119.596H315.907C315.866 119.597 315.827 119.613 315.798 119.643C315.768 119.672 315.752 119.711 315.751 119.752C315.751 119.793 315.767 119.833 315.797 119.862C315.826 119.891 315.866 119.908 315.907 119.908H317.715L316.109 121.513C316.081 121.543 316.065 121.583 316.065 121.624C316.065 121.665 316.081 121.705 316.109 121.735C316.14 121.763 316.179 121.778 316.22 121.778C316.261 121.778 316.301 121.763 316.331 121.735L317.933 120.129V121.934C317.933 121.976 317.95 122.015 317.979 122.044C318.008 122.074 318.048 122.09 318.089 122.09C318.131 122.09 318.17 122.074 318.199 122.044C318.229 122.015 318.245 121.976 318.245 121.934V120.129L319.851 121.735C319.881 121.763 319.92 121.778 319.961 121.778C320.002 121.778 320.042 121.763 320.072 121.735C320.101 121.705 320.117 121.665 320.117 121.624C320.117 121.583 320.101 121.543 320.072 121.513L318.466 119.908H320.272C320.313 119.908 320.353 119.891 320.382 119.862C320.411 119.833 320.427 119.793 320.427 119.752C320.425 119.712 320.408 119.675 320.379 119.648C320.35 119.62 320.311 119.605 320.272 119.605Z" fill="#16586F"/>
<path d="M326.818 119.605H325.013L326.619 118.003C326.648 117.973 326.664 117.934 326.664 117.892C326.664 117.851 326.648 117.811 326.619 117.782C326.604 117.767 326.587 117.755 326.568 117.747C326.549 117.739 326.529 117.735 326.508 117.735C326.488 117.735 326.467 117.739 326.448 117.747C326.429 117.755 326.412 117.767 326.398 117.782L324.792 119.387V117.579C324.792 117.538 324.776 117.498 324.746 117.469C324.717 117.439 324.677 117.423 324.636 117.423C324.595 117.424 324.556 117.44 324.527 117.47C324.498 117.499 324.481 117.538 324.48 117.579V119.387L322.878 117.772C322.863 117.758 322.846 117.746 322.827 117.738C322.808 117.73 322.788 117.726 322.767 117.726C322.746 117.726 322.726 117.73 322.707 117.738C322.688 117.746 322.671 117.758 322.656 117.772C322.628 117.802 322.612 117.842 322.612 117.883C322.612 117.924 322.628 117.964 322.656 117.994L324.262 119.596H322.454C322.413 119.597 322.373 119.613 322.344 119.643C322.315 119.672 322.299 119.711 322.298 119.752C322.298 119.793 322.314 119.833 322.344 119.862C322.373 119.891 322.412 119.908 322.454 119.908H324.262L322.656 121.513C322.628 121.543 322.612 121.583 322.612 121.624C322.612 121.665 322.628 121.705 322.656 121.735C322.686 121.763 322.726 121.778 322.767 121.778C322.808 121.778 322.848 121.763 322.878 121.735L324.48 120.129V121.934C324.48 121.976 324.497 122.015 324.526 122.044C324.555 122.074 324.595 122.09 324.636 122.09C324.677 122.09 324.717 122.074 324.746 122.044C324.776 122.015 324.792 121.976 324.792 121.934V120.129L326.398 121.735C326.428 121.763 326.467 121.778 326.508 121.778C326.549 121.778 326.589 121.763 326.619 121.735C326.648 121.705 326.664 121.665 326.664 121.624C326.664 121.583 326.648 121.543 326.619 121.513L325.013 119.908H326.818C326.86 119.908 326.899 119.891 326.929 119.862C326.958 119.833 326.974 119.793 326.974 119.752C326.972 119.712 326.954 119.675 326.926 119.648C326.897 119.62 326.858 119.605 326.818 119.605Z" fill="#16586F"/>
<path d="M333.365 119.605H331.56L333.166 118.003C333.195 117.973 333.211 117.934 333.211 117.892C333.211 117.851 333.195 117.811 333.166 117.782C333.151 117.767 333.134 117.755 333.115 117.747C333.096 117.739 333.076 117.735 333.055 117.735C333.035 117.735 333.014 117.739 332.995 117.747C332.976 117.755 332.959 117.767 332.944 117.782L331.339 119.387V117.579C331.339 117.538 331.322 117.498 331.293 117.469C331.264 117.439 331.224 117.423 331.183 117.423C331.142 117.424 331.103 117.44 331.074 117.47C331.045 117.499 331.028 117.538 331.027 117.579V119.387L329.425 117.772C329.41 117.758 329.393 117.746 329.374 117.738C329.355 117.73 329.334 117.726 329.314 117.726C329.293 117.726 329.273 117.73 329.254 117.738C329.235 117.746 329.218 117.758 329.203 117.772C329.174 117.802 329.158 117.842 329.158 117.883C329.158 117.924 329.174 117.964 329.203 117.994L330.809 119.596H329.001C328.96 119.597 328.92 119.613 328.891 119.643C328.862 119.672 328.846 119.711 328.845 119.752C328.845 119.793 328.861 119.833 328.89 119.862C328.92 119.891 328.959 119.908 329.001 119.908H330.809L329.203 121.513C329.174 121.543 329.158 121.583 329.158 121.624C329.158 121.665 329.174 121.705 329.203 121.735C329.233 121.763 329.273 121.778 329.314 121.778C329.355 121.778 329.395 121.763 329.425 121.735L331.027 120.129V121.934C331.027 121.976 331.044 122.015 331.073 122.044C331.102 122.074 331.142 122.09 331.183 122.09C331.224 122.09 331.264 122.074 331.293 122.044C331.322 122.015 331.339 121.976 331.339 121.934V120.129L332.944 121.735C332.974 121.763 333.014 121.778 333.055 121.778C333.096 121.778 333.136 121.763 333.166 121.735C333.195 121.705 333.211 121.665 333.211 121.624C333.211 121.583 333.195 121.543 333.166 121.513L331.56 119.908H333.365C333.407 119.908 333.446 119.891 333.476 119.862C333.505 119.833 333.521 119.793 333.521 119.752C333.519 119.712 333.501 119.675 333.472 119.648C333.443 119.62 333.405 119.605 333.365 119.605Z" fill="#16586F"/>
<path d="M339.913 119.605H338.108L339.714 118.003C339.742 117.973 339.758 117.934 339.758 117.892C339.758 117.851 339.742 117.811 339.714 117.782C339.699 117.767 339.682 117.755 339.663 117.747C339.644 117.739 339.624 117.735 339.603 117.735C339.582 117.735 339.562 117.739 339.543 117.747C339.524 117.755 339.507 117.767 339.492 117.782L337.887 119.387V117.579C337.887 117.538 337.87 117.498 337.841 117.469C337.812 117.439 337.772 117.423 337.731 117.423C337.69 117.424 337.651 117.44 337.621 117.47C337.592 117.499 337.576 117.538 337.575 117.579V119.387L335.972 117.772C335.958 117.758 335.941 117.746 335.922 117.738C335.903 117.73 335.882 117.726 335.862 117.726C335.841 117.726 335.821 117.73 335.802 117.738C335.783 117.746 335.766 117.758 335.751 117.772C335.722 117.802 335.706 117.842 335.706 117.883C335.706 117.924 335.722 117.964 335.751 117.994L337.357 119.596H335.548C335.507 119.597 335.468 119.613 335.439 119.643C335.41 119.672 335.393 119.711 335.393 119.752C335.393 119.793 335.409 119.833 335.438 119.862C335.467 119.891 335.507 119.908 335.548 119.908H337.357L335.751 121.513C335.722 121.543 335.706 121.583 335.706 121.624C335.706 121.665 335.722 121.705 335.751 121.735C335.781 121.763 335.821 121.778 335.862 121.778C335.903 121.778 335.942 121.763 335.972 121.735L337.575 120.129V121.934C337.575 121.976 337.591 122.015 337.621 122.044C337.65 122.074 337.689 122.09 337.731 122.09C337.772 122.09 337.812 122.074 337.841 122.044C337.87 122.015 337.887 121.976 337.887 121.934V120.129L339.492 121.735C339.522 121.763 339.562 121.778 339.603 121.778C339.644 121.778 339.684 121.763 339.714 121.735C339.742 121.705 339.758 121.665 339.758 121.624C339.758 121.583 339.742 121.543 339.714 121.513L338.108 119.908H339.913C339.955 119.908 339.994 119.891 340.023 119.862C340.053 119.833 340.069 119.793 340.069 119.752C340.067 119.712 340.049 119.675 340.02 119.648C339.991 119.62 339.953 119.605 339.913 119.605Z" fill="#16586F"/>
<path d="M346.46 119.605H344.655L346.26 118.003C346.289 117.973 346.305 117.934 346.305 117.892C346.305 117.851 346.289 117.811 346.26 117.782C346.246 117.767 346.229 117.755 346.21 117.747C346.191 117.739 346.17 117.735 346.15 117.735C346.129 117.735 346.109 117.739 346.09 117.747C346.071 117.755 346.054 117.767 346.039 117.782L344.434 119.387V117.579C344.434 117.538 344.417 117.498 344.388 117.469C344.359 117.439 344.319 117.423 344.278 117.423C344.237 117.424 344.197 117.44 344.168 117.47C344.139 117.499 344.123 117.538 344.122 117.579V119.387L342.519 117.772C342.505 117.758 342.488 117.746 342.469 117.738C342.45 117.73 342.429 117.726 342.409 117.726C342.388 117.726 342.368 117.73 342.349 117.738C342.33 117.746 342.312 117.758 342.298 117.772C342.269 117.802 342.253 117.842 342.253 117.883C342.253 117.924 342.269 117.964 342.298 117.994L343.904 119.596H342.095C342.054 119.597 342.015 119.613 341.986 119.643C341.957 119.672 341.94 119.711 341.939 119.752C341.939 119.793 341.956 119.833 341.985 119.862C342.014 119.891 342.054 119.908 342.095 119.908H343.904L342.298 121.513C342.269 121.543 342.253 121.583 342.253 121.624C342.253 121.665 342.269 121.705 342.298 121.735C342.328 121.763 342.368 121.778 342.409 121.778C342.45 121.778 342.489 121.763 342.519 121.735L344.122 120.129V121.934C344.122 121.976 344.138 122.015 344.167 122.044C344.197 122.074 344.236 122.09 344.278 122.09C344.319 122.09 344.359 122.074 344.388 122.044C344.417 122.015 344.434 121.976 344.434 121.934V120.129L346.039 121.735C346.069 121.763 346.109 121.778 346.15 121.778C346.191 121.778 346.23 121.763 346.26 121.735C346.289 121.705 346.305 121.665 346.305 121.624C346.305 121.583 346.289 121.543 346.26 121.513L344.655 119.908H346.46C346.501 119.908 346.541 119.891 346.57 119.862C346.599 119.833 346.616 119.793 346.616 119.752C346.613 119.712 346.596 119.675 346.567 119.648C346.538 119.62 346.5 119.605 346.46 119.605Z" fill="#16586F"/>
<path d="M396.651 157.532C396.642 157.155 396.595 156.78 396.511 156.412C396.23 155.359 395.597 154.084 394.556 153.766C393.481 153.436 392.443 152.998 391.457 152.456C391.27 149.114 392.037 145.694 391.202 142.455C390.89 141.27 390.375 140.135 390.238 138.922C390.067 137.413 390.478 135.805 389.877 134.414C389.403 133.317 388.361 132.544 387.242 132.138C386.123 131.733 384.916 131.624 383.729 131.515C382.232 131.393 377.387 130.82 375.697 132.157C375.581 132.248 375.476 132.352 375.386 132.469C375.348 132.52 375.315 132.574 375.286 132.631L375.27 132.656C375.236 132.721 375.208 132.789 375.186 132.859C375.163 132.935 375.145 133.013 375.133 133.092C375.133 133.117 375.133 133.142 375.133 133.167C375.133 133.192 375.133 133.276 375.133 133.332V133.417C375.133 133.473 375.133 133.529 375.133 133.588C375.133 133.647 375.133 133.632 375.133 133.654C375.155 133.934 375.195 134.215 375.195 134.492C375.199 134.63 375.186 134.768 375.158 134.904C375.054 135.271 374.878 135.615 374.641 135.914L374.584 135.995C374.55 136.045 374.516 136.092 374.485 136.141C374.453 136.191 374.429 136.229 374.404 136.272C374.379 136.316 374.354 136.344 374.332 136.385C374.302 136.436 374.275 136.489 374.251 136.544C374.251 136.575 374.217 136.603 374.204 136.634C374.165 136.718 374.134 136.806 374.111 136.896C374.038 137.167 374.031 137.451 374.092 137.725C374.176 138.075 374.32 138.407 374.519 138.707C374.597 138.835 374.681 138.96 374.768 139.084L374.987 139.381C374.946 139.67 374.924 139.962 374.921 140.254C374.921 141.23 375.143 142.193 375.57 143.071C375.996 143.95 376.617 144.719 377.384 145.323C377.508 146.64 377.494 147.965 377.344 149.279C377.316 149.554 377.281 149.831 377.244 150.105C377.206 150.38 377.178 150.561 377.141 150.788C376.685 150.854 376.22 150.818 375.778 150.685C375.575 150.595 375.367 150.514 375.155 150.445C374.248 150.218 373.322 151.122 372.424 150.847C372.424 150.891 372.399 150.932 372.383 150.972C372.196 150.856 371.98 150.792 371.76 150.788C371.227 150.763 370.793 150.377 370.407 150.012L369.219 148.893C369.141 148.824 369.072 148.747 369.013 148.662C368.949 148.541 368.901 148.412 368.87 148.278C368.67 147.633 368.187 147.119 367.719 146.629C367.631 146.518 367.513 146.432 367.38 146.383C367.328 146.375 367.275 146.375 367.224 146.383C367.192 146.339 367.157 146.298 367.121 146.258C367.04 146.166 366.954 146.078 366.862 145.996C366.295 145.473 366.238 145.024 365.746 144.438C365.316 143.879 364.927 143.29 364.58 142.676C364.539 142.349 364.483 142.012 364.415 141.672C364.257 140.894 364.029 140.132 363.732 139.396L363.108 138.015L363.037 138.087C362.585 137.413 362.101 137.046 361.668 137.133C360.942 137.282 360.583 138.692 360.698 140.534L360.948 142.405C360.948 142.452 360.97 142.498 360.982 142.545C360.937 142.767 360.914 142.992 360.913 143.218C360.913 143.48 361.157 143.674 361.284 143.907C361.489 144.224 361.597 144.594 361.596 144.971C361.581 145.105 361.54 145.233 361.534 145.363C361.551 145.656 361.653 145.938 361.827 146.174L363.386 148.793L363.698 149.342L363.716 149.367C363.815 149.558 363.958 149.723 364.134 149.847C364.195 150.502 364.369 151.143 364.648 151.739C364.701 151.858 364.761 151.97 364.823 152.082C365.242 152.771 365.736 153.412 366.295 153.993L367.037 154.826C367.769 155.642 368.502 156.462 369.297 157.217C369.581 157.52 369.925 157.76 370.307 157.925C370.494 157.999 370.697 158.023 370.897 157.994C371.096 157.965 371.284 157.884 371.442 157.759C371.442 158.146 371.442 158.532 371.442 158.919C371.558 158.926 371.669 158.964 371.766 159.029C371.862 159.094 371.939 159.183 371.989 159.287C372.039 159.392 372.061 159.508 372.051 159.623C372.042 159.739 372.001 159.85 371.934 159.945C371.28 161.625 370.619 163.321 369.627 164.827C370.327 165.241 370.976 165.736 371.56 166.302C371.94 166.722 372.277 167.178 372.567 167.664C372.595 167.895 372.617 168.122 372.63 168.35C372.86 172.066 371.423 175.754 370.136 179.296C369.765 180.3 369.359 181.351 369.39 182.395C369.146 182.546 368.913 182.713 368.692 182.897C368.948 183.564 368.848 184.16 368.82 184.874C368.811 185.302 368.723 185.724 368.561 186.121C368.426 186.395 368.276 186.663 368.112 186.922C367.305 188.347 367.127 190.04 366.965 191.667C366.868 192.649 367.249 193.849 366.803 194.729C366.033 196.237 365.35 197.846 365.244 199.523C365.24 199.901 365.192 200.277 365.1 200.643C365.004 200.955 364.832 201.22 364.745 201.525C364.655 201.934 364.634 202.356 364.683 202.772C364.742 204.267 364.52 205.759 364.028 207.171C363.638 208.284 363.208 209.475 363.514 210.619C362.761 211.409 362.297 212.429 362.195 213.516C362.187 213.793 362.153 214.07 362.095 214.342C362 214.62 361.874 214.886 361.721 215.137C361.093 216.28 360.8 217.576 360.873 218.878C359.938 220.147 359.47 221.712 359.193 223.268C358.915 224.823 358.793 226.407 358.438 227.944C357.964 229.977 357.107 232.031 356.938 234.114C355.928 234.759 355.492 236.01 355.299 237.191C355.105 238.373 355.074 239.614 354.578 240.705C354.323 241.272 353.955 241.78 353.712 242.36C353.541 242.822 353.416 243.299 353.338 243.785C353.188 244.546 353.057 245.394 353.241 246.123C352.976 246.403 352.668 246.638 352.327 246.818C352.377 246.625 352.418 246.432 352.452 246.235C351.648 246.965 350.189 246.709 349.546 247.585C349.354 247.868 349.278 248.214 349.337 248.551C349.395 248.888 349.582 249.189 349.858 249.391C350.059 249.513 350.276 249.606 350.504 249.668C352.062 250.167 353.665 250.669 355.267 250.404C355.457 250.383 355.64 250.325 355.807 250.232C356.015 250.079 356.187 249.881 356.309 249.652C356.549 249.272 356.789 248.892 357.026 248.511C357.6 248.683 358.184 248.819 358.775 248.92C358.834 249.419 358.878 249.917 358.899 250.416C359.211 250.479 359.629 250.497 359.776 250.207C359.82 250.098 359.838 249.979 359.829 249.861C359.829 249.64 359.86 249.347 359.878 249.048H359.941C360.892 249.086 361.838 248.895 362.7 248.49C362.366 245.727 363.467 243.027 364.421 240.415C365.428 237.665 366.291 234.865 367.161 232.066C367.785 230.095 368.474 228.187 369.085 226.214C369.854 223.72 370.626 221.226 371.401 218.731C371.738 217.634 372.078 216.549 372.464 215.458C373.278 213.25 374.244 211.101 375.354 209.026C375.666 208.437 375.978 207.854 376.234 207.243C376.545 206.498 376.767 205.718 377.016 204.948C377.56 203.368 378.214 201.828 378.974 200.34C378.996 200.3 379.012 200.262 379.033 200.225C379.286 201.257 379.538 202.304 379.707 203.343C379.935 204.616 379.953 205.917 379.76 207.196C379.61 208.066 379.326 208.926 379.361 209.809C379.407 211.028 380.059 212.134 380.38 213.31C380.587 214.189 380.704 215.088 380.729 215.991C380.817 217.394 381.577 218.968 381.041 220.268C379.373 224.387 380.181 229.038 379.23 233.363C378.74 235.582 377.241 237.668 377.359 239.938C377.442 241.549 377.584 243.155 377.783 244.758C377.831 245.263 377.963 245.757 378.173 246.22C378.297 246.463 378.44 246.697 378.6 246.918C378.463 246.971 378.347 247.112 378.248 247.408C377.992 248.187 378.248 249.154 378.94 249.59C379.222 249.741 379.526 249.846 379.841 249.902C380.265 250.022 380.703 250.083 381.144 250.083C381.281 250.075 381.418 250.059 381.552 250.033C382.034 250.235 382.527 250.412 383.027 250.563C383.027 250.691 383.052 250.818 383.068 250.946C383.068 251.013 383.083 251.079 383.111 251.14C383.139 251.2 383.18 251.254 383.23 251.299C383.308 251.335 383.394 251.35 383.479 251.342H385.172C385.172 251.202 385.172 251.058 385.172 250.918C385.366 250.938 385.562 250.918 385.747 250.858C385.932 250.797 386.103 250.699 386.248 250.569C386.398 250.378 386.504 250.157 386.559 249.921C387.021 248.355 387.479 246.789 387.934 245.222C388.48 243.49 388.707 241.673 388.605 239.86C388.003 234.114 389.325 228.349 388.895 222.588C388.636 219.125 388.814 215.643 389.425 212.225C389.565 211.452 389.736 210.666 389.799 209.896C389.936 208.443 389.767 206.975 389.87 205.531C389.905 205.026 389.973 204.524 390.036 204.022C390.463 200.907 390.687 197.767 390.706 194.623C390.696 193.581 390.632 192.54 390.513 191.505C390.838 191.422 391.133 191.249 391.364 191.006C391.641 190.644 391.569 190.136 391.566 189.675C391.566 188.571 392.031 187.53 392.405 186.489C392.885 185.052 393.279 183.589 393.583 182.105C393.906 180.91 394.081 179.68 394.107 178.442C394.107 178.317 394.101 178.192 394.089 178.068C394.206 177.986 394.304 177.88 394.375 177.756C394.457 177.573 394.507 177.378 394.525 177.179C394.637 176.384 394.753 175.586 394.865 174.788C394.948 174.216 395.03 173.646 395.111 173.076L396.103 166.158C396.187 165.557 396.274 164.958 396.358 164.359L396.617 162.57C396.645 162.358 396.676 162.146 396.698 161.946C397.459 160.674 396.732 158.978 396.651 157.532ZM388.38 183.433C388.012 182.56 387.669 181.666 387.757 180.724H387.722C387.804 180.434 387.79 180.126 387.682 179.845C387.585 179.617 387.417 179.424 387.314 179.196C387.203 178.919 387.146 178.622 387.145 178.323C387.068 176.427 387.218 174.529 387.591 172.668C387.632 172.45 387.675 172.228 387.716 172.01C387.847 171.935 387.966 171.841 388.071 171.733C388.235 171.546 388.371 171.336 388.474 171.109C388.826 170.401 389.147 169.681 389.443 168.949C389.54 168.712 389.68 168.437 389.92 168.378C389.87 170.202 390.057 172.063 389.315 173.709C389.174 173.975 389.07 174.258 389.004 174.551C388.935 175.016 389.128 175.486 389.06 175.948C389.025 176.188 388.923 176.409 388.882 176.646C388.851 176.762 388.852 176.885 388.884 177.001C388.915 177.117 388.977 177.223 389.063 177.307C389.104 177.336 389.149 177.359 389.197 177.376C389.178 177.5 389.163 177.628 389.15 177.75C389.125 178.005 389.113 178.245 389.097 178.395C389.025 179.158 388.997 179.924 389.013 180.69C389.013 181.516 389.044 182.342 389.032 183.184C389.043 183.425 389.003 183.667 388.913 183.892C388.851 184.007 388.771 184.113 388.676 184.203C388.586 183.923 388.486 183.676 388.38 183.433Z" fill="url(#paint0_linear_2870_6580)"/>
<path d="M363.77 147.259C364.722 147.064 365.045 144.722 364.493 142.028C363.941 139.335 362.723 137.309 361.771 137.504C360.82 137.699 360.496 140.04 361.048 142.734C361.6 145.428 362.819 147.454 363.77 147.259Z" fill="#FBBEBE"/>
<path d="M378.297 247.467C378.042 248.24 378.297 249.207 378.989 249.628C379.27 249.777 379.572 249.882 379.884 249.939C380.307 250.059 380.745 250.119 381.184 250.117C381.724 250.092 382.241 249.88 382.78 249.805C382.843 249.79 382.909 249.799 382.964 249.83C382.991 249.859 383.012 249.894 383.023 249.932C383.035 249.969 383.039 250.009 383.033 250.048C383.039 250.355 383.062 250.661 383.102 250.965C383.102 251.032 383.117 251.098 383.145 251.159C383.173 251.219 383.213 251.273 383.264 251.317C383.342 251.354 383.428 251.369 383.513 251.361H385.203C385.241 249.876 385.079 248.394 384.72 246.953C384.696 246.842 384.654 246.737 384.595 246.641C384.452 246.484 384.263 246.375 384.056 246.329C383.642 246.157 383.196 246.079 382.749 246.101C382.204 246.173 381.749 246.525 381.284 246.818C380.819 247.112 380.187 247.37 379.622 247.221C379.058 247.071 378.587 246.6 378.297 247.467Z" fill="#3F3D56"/>
<path d="M353.488 246.098C353.012 246.607 352.43 247.003 351.782 247.258L351.495 247.395C351.456 247.41 351.422 247.438 351.399 247.473C351.393 247.497 351.393 247.523 351.399 247.547C351.404 247.571 351.415 247.594 351.43 247.613C351.668 247.983 352.021 248.264 352.434 248.414C352.847 248.564 353.298 248.575 353.718 248.446C353.904 248.399 354.076 248.31 354.22 248.184C354.458 247.902 354.594 247.549 354.607 247.18C354.701 246.8 354.685 246.401 354.56 246.03C354.127 245.054 353.968 245.497 353.488 246.098Z" fill="#FBBEBE"/>
<path d="M359.966 249.939C359.975 250.057 359.957 250.176 359.913 250.285C359.766 250.572 359.358 250.557 359.04 250.494C358.992 249.436 358.864 248.384 358.656 247.345C358.052 247.317 357.615 247.891 357.291 248.405L356.455 249.73C356.335 249.958 356.164 250.157 355.957 250.31C355.789 250.402 355.606 250.46 355.417 250.482C353.821 250.747 352.209 250.245 350.669 249.746C350.442 249.685 350.225 249.593 350.024 249.472C349.749 249.27 349.563 248.969 349.505 248.633C349.447 248.297 349.521 247.952 349.712 247.67C350.357 246.797 351.807 247.046 352.611 246.323C352.527 246.832 352.389 247.33 352.2 247.81C353.275 247.648 353.999 246.663 354.865 246.005C355.083 245.82 355.345 245.695 355.626 245.643C355.836 245.625 356.048 245.648 356.25 245.709C357.249 245.96 358.184 246.42 358.993 247.058C359.32 247.317 359.832 247.682 359.975 248.081C360.128 248.558 359.966 249.431 359.966 249.939Z" fill="#3F3D56"/>
<path d="M381.412 147.075C384.969 147.075 387.853 144.191 387.853 140.634C387.853 137.077 384.969 134.193 381.412 134.193C377.854 134.193 374.971 137.077 374.971 140.634C374.971 144.191 377.854 147.075 381.412 147.075Z" fill="#FBBEBE"/>
<path d="M394.101 178.663C394.075 179.895 393.9 181.118 393.58 182.308C393.275 183.785 392.882 185.243 392.402 186.673C392.031 187.711 391.566 188.752 391.569 189.853C391.569 190.311 391.644 190.819 391.363 191.181C391.114 191.435 390.799 191.615 390.453 191.701C390.281 191.747 390.121 191.833 389.988 191.951C389.855 192.07 389.752 192.218 389.686 192.384C389.393 191.947 389.174 191.464 389.038 190.956C388.479 189.244 387.959 187.522 387.479 185.79C387.435 185.691 387.416 185.582 387.424 185.473C387.431 185.364 387.465 185.259 387.522 185.167C387.602 185.098 387.694 185.046 387.794 185.014C388.113 184.884 388.406 184.695 388.657 184.459C388.775 184.354 388.873 184.228 388.944 184.088C389.035 183.865 389.076 183.624 389.066 183.383C389.066 182.557 389.066 181.734 389.044 180.908C389.031 180.145 389.06 179.382 389.131 178.623C389.131 178.473 389.159 178.233 389.184 177.977C389.231 177.488 389.324 176.92 389.589 176.73C389.985 176.465 391.17 176.821 391.619 176.883C392.392 176.989 393.178 177.114 393.932 177.26C394.042 177.72 394.098 178.191 394.101 178.663Z" fill="#3F3D56"/>
<path d="M368.094 147.845C367.844 148.344 367.246 148.584 366.784 148.899L365.204 149.984C365.098 150.079 364.974 150.152 364.84 150.198C364.705 150.244 364.563 150.262 364.421 150.252C364.292 150.204 364.175 150.132 364.075 150.038C363.974 149.944 363.894 149.832 363.838 149.706C363.839 149.698 363.839 149.69 363.838 149.681L363.511 149.133L361.952 146.52C361.779 146.286 361.678 146.007 361.662 145.716C361.662 145.582 361.709 145.457 361.721 145.323C361.725 144.946 361.617 144.577 361.409 144.263C361.285 144.029 361.035 143.836 361.042 143.574C361.03 143.23 361.089 142.887 361.216 142.567C361.38 142.271 361.614 142.02 361.899 141.837C362.045 141.731 362.195 141.632 362.351 141.526C362.434 141.469 362.525 141.427 362.622 141.401C362.881 141.348 363.137 141.563 363.398 141.572C364.524 142.327 364.957 143.755 365.843 144.784C366.342 145.37 366.391 145.819 366.956 146.342C367.046 146.424 367.133 146.511 367.218 146.601C367.329 146.723 367.424 146.859 367.498 147.007C367.601 147.275 368.222 147.59 368.094 147.845Z" fill="#3F3D56"/>
<path d="M379.149 147.078C379.613 148.06 379.975 149.139 379.841 150.218C379.813 150.51 379.721 150.792 379.57 151.044C379.121 151.733 378.179 151.858 377.359 151.898C377.186 151.884 377.012 151.904 376.848 151.957C376.683 152.011 376.53 152.097 376.399 152.21C376.289 152.369 376.236 152.56 376.246 152.753C376.257 152.946 376.332 153.13 376.458 153.276C376.722 153.557 377.049 153.771 377.412 153.9C378.709 154.47 380.109 154.941 381.518 154.81C382.173 154.748 382.809 154.558 383.46 154.461C384.171 154.384 384.885 154.344 385.599 154.342C386.447 154.311 387.292 154.227 388.137 154.143L390.375 153.922C390.498 153.923 390.616 153.88 390.709 153.8C390.874 153.607 390.662 153.323 390.456 153.176C389.269 152.297 387.757 151.692 387.08 150.371C386.768 149.747 386.672 149.005 386.441 148.332C386.21 147.658 385.842 147.05 385.699 146.364C385.622 145.763 385.588 145.156 385.596 144.55C385.604 143.938 385.381 143.346 384.972 142.891C384.527 142.477 383.881 142.371 383.276 142.346C381.786 142.28 380.199 142.636 379.142 143.686C378.859 143.97 378.616 144.31 378.322 144.565C378.029 144.821 377.63 144.896 377.824 145.233C378.017 145.569 378.397 145.778 378.603 146.074C378.811 146.394 378.994 146.73 379.149 147.078Z" fill="#FBBEBE"/>
<path d="M391.847 156.147C391.454 158.548 390.814 160.902 389.939 163.172C389.499 164.196 389.124 165.248 388.816 166.32C388.576 167.287 388.623 168.322 388.402 169.292C388.127 170.498 387.853 171.708 387.632 172.924C387.26 174.78 387.112 176.675 387.189 178.567C387.19 178.865 387.247 179.16 387.357 179.436C387.46 179.661 387.625 179.854 387.722 180.085C387.794 180.288 387.824 180.503 387.809 180.718C387.794 180.932 387.735 181.141 387.635 181.332C387.475 181.689 387.258 182.017 386.993 182.305C384.087 183.171 380.979 182.888 377.951 183.072C375.161 183.24 372.34 183.814 369.59 183.337C369.278 182.09 369.799 180.783 370.245 179.567C371.538 176.035 372.969 172.356 372.739 168.656C372.714 168.224 372.666 167.794 372.592 167.368C372.14 164.746 372.633 162.03 373.421 159.49C373.911 157.906 373.889 156.219 373.777 154.57C373.721 154.034 373.714 153.495 373.755 152.958C373.8 152.41 374.004 151.887 374.341 151.452C374.341 151.43 374.369 151.409 374.385 151.387C374.4 151.365 374.522 151.368 374.619 151.387C374.643 151.397 374.67 151.403 374.697 151.403C374.723 151.403 374.75 151.397 374.774 151.387L374.809 151.365C374.822 151.356 374.838 151.351 374.854 151.351C374.87 151.351 374.886 151.356 374.899 151.365C374.971 151.409 375.011 151.558 375.167 151.586C375.398 151.621 375.63 151.643 375.863 151.652C376.143 151.66 376.421 151.7 376.692 151.77H376.729C377.135 151.839 377.551 151.803 377.939 151.667C378.197 151.603 378.446 151.507 378.681 151.381C378.749 151.306 379.18 151.237 379.267 151.184C379.551 151.013 379.488 150.208 379.548 149.878C379.58 149.546 379.659 149.221 379.781 148.911C379.923 148.683 380.119 148.492 380.352 148.357C380.585 148.222 380.847 148.146 381.116 148.135C381.653 148.122 382.189 148.17 382.715 148.278C383.878 148.444 385.069 148.416 386.21 148.684C386.784 148.818 387.41 149.02 387.937 148.759C388.081 148.793 388.102 148.918 388.102 149.07C388.089 149.216 388.06 149.359 388.015 149.497C387.816 150.358 388.492 151.15 389.116 151.773C389.379 152.067 389.69 152.315 390.035 152.506C390.347 152.649 390.659 152.709 390.971 152.865C391.223 152.999 391.438 153.196 391.594 153.435C391.774 153.71 391.895 154.019 391.95 154.342C392.017 154.946 391.982 155.556 391.847 156.147Z" fill="#3F3D56"/>
<path opacity="0.1" d="M391.846 156.147C391.453 158.548 390.814 160.902 389.938 163.172C389.498 164.196 389.123 165.248 388.816 166.32C388.576 167.287 388.623 168.322 388.401 169.292C388.127 170.498 387.853 171.708 387.631 172.924C387.566 172.961 387.497 172.995 387.429 173.027C387.041 173.212 386.63 173.344 386.207 173.419C385.447 173.511 384.677 173.486 383.924 173.345L379.476 172.749C377.699 172.509 375.806 172.219 374.487 171.016C373.755 170.355 373.275 169.482 372.748 168.64C372.724 168.208 372.675 167.778 372.601 167.352C372.149 164.73 372.642 162.015 373.43 159.474C373.92 157.89 373.898 156.204 373.786 154.554C373.73 154.019 373.723 153.479 373.764 152.942C373.809 152.394 374.013 151.871 374.35 151.437C374.441 151.41 374.534 151.389 374.628 151.374C374.69 151.362 374.754 151.353 374.818 151.349H374.908C375.013 151.35 375.118 151.362 375.22 151.387C375.432 151.454 375.641 151.535 375.844 151.627H375.881C376.148 151.715 376.429 151.755 376.71 151.745C377.122 151.745 377.546 151.68 377.957 151.652C378.466 151.572 378.986 151.666 379.435 151.917C379.725 152.15 380 152.401 380.258 152.668C380.57 152.913 380.921 153.104 381.296 153.232C383.98 154.257 386.957 154.194 389.596 153.058C389.849 152.914 390.136 152.841 390.428 152.846C390.643 152.888 390.847 152.975 391.027 153.101C391.214 153.211 391.398 153.317 391.588 153.413C391.767 153.688 391.888 153.997 391.943 154.32C392.015 154.931 391.982 155.548 391.846 156.147Z" fill="black"/>
<path d="M394.562 154.084C393.321 153.704 392.128 153.181 391.008 152.525C390.828 152.399 390.625 152.312 390.41 152.269C390.117 152.266 389.829 152.339 389.574 152.481C386.937 153.617 383.961 153.68 381.278 152.656C380.903 152.526 380.552 152.335 380.24 152.091C379.981 151.825 379.706 151.574 379.417 151.34C378.391 150.676 376.972 151.455 375.825 151.028C375.622 150.937 375.413 150.857 375.202 150.788C374.294 150.561 373.372 151.465 372.48 151.19C372.148 152.092 371.903 153.023 371.747 153.971C371.62 155.06 371.553 156.155 371.545 157.251C371.545 157.909 371.513 158.567 371.545 159.225C371.654 159.243 371.759 159.283 371.853 159.344C371.946 159.404 372.026 159.484 372.087 159.577C372.128 159.686 372.145 159.802 372.136 159.918C372.128 160.033 372.094 160.146 372.037 160.247C371.386 161.921 370.725 163.614 369.736 165.114C370.433 165.529 371.079 166.023 371.663 166.585C372.754 167.739 373.29 169.357 374.469 170.423C375.797 171.624 377.69 171.917 379.457 172.154L383.906 172.749C384.66 172.89 385.43 172.916 386.191 172.827C386.614 172.75 387.024 172.617 387.41 172.431C387.663 172.325 387.894 172.173 388.09 171.982C388.254 171.795 388.39 171.585 388.492 171.359C388.845 170.654 389.166 169.934 389.462 169.204C389.565 168.945 389.721 168.643 390.001 168.621C391.654 167.131 393.212 165.603 394.865 164.113C395.529 163.563 396.124 162.935 396.639 162.243C397.459 161.03 396.714 159.312 396.639 157.847C396.63 157.472 396.583 157.099 396.498 156.734C396.23 155.67 395.601 154.398 394.562 154.084Z" fill="#16586F"/>
<path opacity="0.1" d="M368.093 147.845C367.844 148.344 367.245 148.584 366.784 148.899L365.203 149.984C365.097 150.079 364.973 150.152 364.839 150.198C364.705 150.244 364.562 150.262 364.42 150.252C364.292 150.204 364.174 150.132 364.074 150.038C363.974 149.944 363.893 149.832 363.837 149.706C363.837 149.635 363.837 149.557 363.837 149.482C363.825 149.23 363.859 148.977 363.937 148.737C364.092 148.384 364.332 148.076 364.635 147.839C365.222 147.283 365.921 146.858 366.684 146.592C366.803 146.546 366.932 146.533 367.058 146.554C367.106 146.567 367.153 146.587 367.195 146.614C367.307 146.735 367.401 146.872 367.476 147.019C367.6 147.275 368.221 147.59 368.093 147.845Z" fill="black"/>
<path d="M371.816 151.131C371.286 151.106 370.852 150.723 370.466 150.358L369.284 149.261C369.205 149.194 369.136 149.116 369.078 149.03C369.015 148.909 368.966 148.78 368.935 148.646C368.684 148.017 368.292 147.453 367.788 147C367.7 146.889 367.582 146.804 367.448 146.757C367.321 146.734 367.19 146.747 367.071 146.794C366.307 147.06 365.609 147.485 365.022 148.042C364.719 148.279 364.479 148.587 364.324 148.939C364.246 149.18 364.212 149.432 364.224 149.685C364.232 150.508 364.417 151.321 364.767 152.066C364.82 152.182 364.879 152.297 364.941 152.409C365.357 153.097 365.849 153.736 366.407 154.314L367.149 155.144C367.878 155.96 368.608 156.777 369.4 157.529C369.683 157.831 370.027 158.071 370.41 158.233C370.601 158.312 370.811 158.335 371.016 158.302C371.22 158.269 371.412 158.181 371.569 158.046C371.719 157.873 371.831 157.672 371.9 157.454C372.38 156.207 372.835 154.91 372.863 153.566C372.87 153.028 372.847 152.49 372.795 151.954C372.748 151.387 372.346 151.165 371.816 151.131Z" fill="#16586F"/>
<path d="M390.709 194.778C390.691 197.915 390.468 201.046 390.042 204.153C389.979 204.655 389.911 205.157 389.876 205.659C389.773 207.115 389.942 208.577 389.805 210.024C389.733 210.806 389.571 211.583 389.434 212.346C388.824 215.756 388.646 219.228 388.904 222.682C389.334 228.427 388.015 234.176 388.614 239.907C388.686 241.021 388.624 242.14 388.43 243.239C388.318 243.922 388.157 244.595 387.946 245.253C387.491 246.814 387.034 248.373 386.575 249.93C386.521 250.167 386.414 250.388 386.263 250.578C386.104 250.716 385.917 250.818 385.716 250.878C385.514 250.937 385.302 250.953 385.094 250.924C383.295 250.868 381.602 250.092 379.968 249.334C379.781 249.26 379.607 249.155 379.454 249.023C379.114 248.67 379.142 248.115 378.993 247.651C378.843 247.186 378.438 246.75 378.207 246.273C378.017 245.822 377.902 245.343 377.867 244.854C377.659 243.258 377.518 241.656 377.443 240.047C377.325 237.784 378.821 235.701 379.314 233.5C380.249 229.173 379.457 224.533 381.119 220.427C381.643 219.131 380.882 217.559 380.807 216.163C380.78 215.261 380.663 214.365 380.458 213.488C380.146 212.315 379.488 211.212 379.442 209.996C379.407 209.117 379.691 208.259 379.837 207.393C380.032 206.117 380.014 204.818 379.784 203.548C379.619 202.501 379.367 201.453 379.114 200.431L379.058 200.546C378.298 202.031 377.645 203.567 377.103 205.145C376.854 205.909 376.636 206.688 376.324 207.43C376.068 208.053 375.753 208.624 375.445 209.21C374.338 211.277 373.374 213.418 372.561 215.617C372.174 216.696 371.834 217.799 371.498 218.881L369.188 226.364C368.564 228.331 367.881 230.233 367.27 232.197C366.407 235.003 365.543 237.784 364.539 240.527C363.604 243.13 362.491 245.827 362.824 248.577C361.965 248.981 361.021 249.172 360.071 249.135C358.465 248.993 356.888 248.61 355.395 248C354.8 247.779 354.182 247.529 353.78 247.04C353.088 246.195 353.259 244.957 353.468 243.882C353.547 243.397 353.672 242.921 353.842 242.46C354.079 241.886 354.466 241.378 354.709 240.811C355.199 239.723 355.23 238.491 355.423 237.31C355.616 236.128 356.047 234.881 357.057 234.239C357.228 232.162 358.082 230.114 358.553 228.084C358.909 226.547 359.027 224.967 359.308 223.408C359.588 221.849 360.04 220.29 360.982 219.028C360.908 217.726 361.201 216.429 361.83 215.286C361.982 215.036 362.106 214.769 362.201 214.491C362.259 214.221 362.292 213.945 362.301 213.668C362.404 212.585 362.867 211.567 363.616 210.778C363.304 209.64 363.738 208.453 364.128 207.349C364.618 205.941 364.84 204.453 364.782 202.962C364.734 202.546 364.754 202.125 364.841 201.715C364.929 201.403 365.1 201.138 365.2 200.839C365.289 200.473 365.336 200.097 365.34 199.72C365.462 198.033 366.145 196.443 366.899 194.937C367.348 194.058 366.968 192.864 367.061 191.885C367.223 190.258 367.401 188.574 368.209 187.156C368.358 186.888 368.52 186.632 368.654 186.355C368.817 185.958 368.905 185.536 368.913 185.107C368.941 184.394 369.041 183.801 368.785 183.137C370.453 181.75 372.729 181.36 374.899 181.266C377.069 181.173 379.264 181.369 381.387 180.908C382.01 180.768 382.634 180.574 383.292 180.481C384.785 180.263 386.3 180.602 387.775 180.939C387.672 181.874 388.015 182.772 388.399 183.642C389.896 187.166 390.681 190.95 390.709 194.778Z" fill="#33313F"/>
<path opacity="0.1" d="M383.367 195.492L379.785 203.548C379.62 202.501 379.367 201.453 379.115 200.431L379.059 200.546V200.378L381.01 196.085L383.367 195.492Z" fill="black"/>
<path opacity="0.1" d="M394.101 178.663C393.895 178.818 393.648 178.91 393.391 178.928C392.996 178.942 392.601 178.888 392.225 178.769L389.419 178.068C389.331 178.046 389.245 178.016 389.163 177.977C389.21 177.488 389.303 176.92 389.568 176.73C389.964 176.465 391.149 176.821 391.598 176.883C392.371 176.989 393.157 177.114 393.911 177.26C394.028 177.719 394.092 178.19 394.101 178.663Z" fill="black"/>
<path d="M396.473 160.113C396.532 160.372 396.616 160.628 396.666 160.889C396.75 161.532 396.728 162.184 396.601 162.819L396.345 164.603L396.089 166.395L395.101 173.295L394.858 175.003L394.515 177.388C394.499 177.587 394.448 177.781 394.365 177.962C394.263 178.131 394.121 178.273 393.95 178.373C393.78 178.474 393.587 178.531 393.39 178.539C392.995 178.551 392.601 178.497 392.224 178.38L389.418 177.675C389.295 177.653 389.178 177.605 389.075 177.535C388.989 177.451 388.927 177.346 388.895 177.23C388.864 177.115 388.863 176.993 388.894 176.877C388.934 176.64 389.037 176.419 389.072 176.182C389.14 175.72 388.947 175.246 389.015 174.788C389.083 174.496 389.188 174.214 389.327 173.949C390.263 171.882 389.72 169.469 390.038 167.225C390.324 165.458 391.07 163.798 392.202 162.411C392.9 161.536 393.702 160.748 394.59 160.066C394.939 159.795 395.494 159.237 395.934 159.131C396.498 159.013 396.379 159.72 396.473 160.113Z" fill="#16586F"/>
<path d="M375.24 133.258C375.034 133.912 375.355 134.632 375.209 135.3C375.05 136.035 374.358 136.547 374.161 137.286C373.849 138.411 374.803 139.437 375.502 140.372C378.089 143.845 377.75 148.653 376.864 152.889C376.152 156.289 375.166 159.625 373.918 162.866C373.528 163.873 373.098 164.896 372.331 165.65C373.765 165.239 375.29 164.824 376.727 165.223C378.548 165.728 380.119 167.496 381.965 167.094C383.075 166.847 383.854 165.862 384.852 165.316C386.722 164.309 388.976 164.942 391.062 165.267C391.511 165.373 391.982 165.349 392.418 165.198C392.752 165.019 393.035 164.758 393.241 164.44C394.172 163.246 394.729 161.804 394.844 160.294C394.893 159.542 394.782 158.788 394.518 158.083C394.254 157.377 393.843 156.735 393.313 156.2C392.87 155.783 392.34 155.446 392 154.953C391.67 154.378 391.493 153.728 391.486 153.064C391.24 149.635 392.075 146.133 391.215 142.816C390.903 141.635 390.395 140.503 390.258 139.293C390.086 137.788 390.495 136.176 389.896 134.798C389.425 133.703 388.387 132.927 387.268 132.528C386.149 132.129 384.951 132.017 383.764 131.904C382.055 131.761 375.954 131.028 375.24 133.258Z" fill="#33313F"/>
<g opacity="0.1">
<path opacity="0.1" d="M376.864 152.89C376.155 156.275 375.175 159.597 373.934 162.826C374.149 162.398 374.33 161.949 374.501 161.504C375.751 158.263 376.736 154.927 377.447 151.527C378.336 147.287 378.675 142.486 376.088 139.01C375.464 138.18 374.663 137.283 374.691 136.31C374.461 136.604 374.282 136.935 374.161 137.289C373.849 138.414 374.803 139.44 375.502 140.375C378.089 143.845 377.75 148.653 376.864 152.89Z" fill="black"/>
<path opacity="0.1" d="M375.246 134.985C375.496 134.674 375.683 134.317 375.795 133.934C375.843 133.471 375.83 133.004 375.757 132.544C375.517 132.724 375.337 132.973 375.24 133.258C375.056 133.809 375.268 134.408 375.246 134.985Z" fill="black"/>
<path opacity="0.1" d="M393.827 163.069C393.621 163.386 393.338 163.645 393.004 163.823C392.568 163.977 392.097 164.001 391.648 163.892C389.562 163.58 387.283 162.938 385.438 163.945C384.437 164.487 383.661 165.473 382.548 165.722C380.705 166.133 379.134 164.366 377.313 163.851C376.022 163.493 374.663 163.789 373.363 164.163C373.105 164.714 372.756 165.218 372.331 165.653C373.765 165.242 375.29 164.827 376.727 165.226C378.548 165.731 380.119 167.499 381.965 167.097C383.075 166.851 383.854 165.865 384.852 165.32C386.722 164.313 388.976 164.946 391.062 165.27C391.511 165.376 391.982 165.352 392.418 165.201C392.752 165.022 393.035 164.761 393.241 164.444C393.806 163.698 394.243 162.864 394.532 161.974C394.324 162.356 394.088 162.721 393.827 163.069Z" fill="black"/>
</g>
</g>
<defs>
<linearGradient id="paint0_linear_2870_6580" x1="349.338" y1="191.312" x2="397.038" y2="191.312" gradientUnits="userSpaceOnUse">
<stop stop-color="#808080" stop-opacity="0.25"/>
<stop offset="0.54" stop-color="#808080" stop-opacity="0.12"/>
<stop offset="1" stop-color="#808080" stop-opacity="0.1"/>
</linearGradient>
<clipPath id="clip0_2870_6580">
<rect width="363.573" height="251" fill="white" transform="translate(109.714 0.379639)"/>
</clipPath>
</defs>
</svg>
