<svg width="583" height="252" viewBox="0 0 583 252" fill="none" xmlns="http://www.w3.org/2000/svg">
<g clip-path="url(#clip0_2879_6783)">
<path d="M403.062 248.591C397.685 244.047 394.419 236.87 395.275 229.882C396.132 222.895 401.437 216.471 408.319 214.987C415.2 213.503 423.045 217.611 425.135 224.333C426.285 211.373 427.611 197.869 434.501 186.833C440.741 176.839 451.547 169.688 463.259 168.409C474.971 167.13 487.301 171.961 494.606 181.205C501.91 190.449 503.698 203.888 498.583 214.501C494.814 222.319 487.871 228.137 480.597 232.87C457.09 248.037 428.897 254.205 401.205 250.239L403.062 248.591Z" fill="#CEDCE1" fill-opacity="0.5"/>
<path d="M483.024 172.229C473.36 180.1 464.495 188.904 456.556 198.512C444.132 213.497 434.078 230.298 426.745 248.329C426.208 249.645 428.344 250.217 428.875 248.917C440.873 219.611 460.028 193.782 484.586 173.791C485.689 172.893 484.118 171.339 483.024 172.229Z" fill="white"/>
<path d="M216.705 247.356C224.09 241.116 228.576 231.257 227.4 221.66C226.223 212.063 218.937 203.24 209.485 201.202C200.033 199.164 189.258 204.805 186.388 214.038C184.808 196.237 182.987 177.691 173.523 162.531C164.953 148.805 150.111 138.983 134.025 137.226C117.939 135.469 101.002 142.106 90.9698 154.802C80.9375 167.499 78.4812 185.957 85.5075 200.533C90.6836 211.271 100.22 219.263 110.211 225.764C142.088 246.506 181.63 255.157 219.255 249.62" fill="#CEDCE1" fill-opacity="0.5"/>
<path d="M106.877 142.473C120.15 153.284 132.327 165.376 143.231 178.572C154.136 191.756 163.738 205.965 171.9 221.002C176.462 229.437 180.56 238.115 184.176 246.997C184.914 248.804 181.98 249.59 181.251 247.804C174.846 232.145 166.921 217.152 157.591 203.039C148.307 188.977 137.68 175.849 125.86 163.84C119.175 157.05 112.121 150.634 104.732 144.619C103.217 143.385 105.375 141.25 106.877 142.473L106.877 142.473Z" fill="white"/>
<path d="M382.982 250.881H206.775V70.0876C206.775 31.6225 238.069 0.328979 276.534 0.328979H313.224C351.689 0.328979 382.982 31.6225 382.982 70.0876V250.881Z" fill="#CEDCE1" fill-opacity="0.25"/>
<path d="M346.293 250.881H206.776V70.0875C206.737 55.3486 211.404 40.9822 220.098 29.0799C220.418 28.6431 220.738 28.212 221.067 27.7856C225.272 22.2706 230.276 17.4136 235.914 13.375C236.233 13.1432 236.552 12.9155 236.877 12.6878C241.595 9.42314 246.698 6.75432 252.07 4.74211C252.389 4.62119 252.714 4.50002 253.039 4.38381C257.898 2.64977 262.935 1.46197 268.057 0.842328C268.375 0.798952 268.701 0.76501 269.027 0.731067C274.018 0.197392 279.052 0.197392 284.043 0.731067C284.368 0.76501 284.694 0.798948 285.015 0.842792C290.136 1.46248 295.171 2.65013 300.029 4.38383C300.354 4.50004 300.679 4.6212 300.999 4.74236C306.305 6.72918 311.349 9.35818 316.016 12.5707C316.34 12.7934 316.665 13.0212 316.985 13.2489C320.145 15.5047 323.113 18.0178 325.859 20.7625C328.062 22.9641 330.114 25.3109 332.002 27.787C332.331 28.212 332.65 28.6432 332.97 29.0793C341.664 40.9816 346.331 55.3483 346.293 70.0875V250.881Z" fill="#CEDCE1"/>
<path d="M334.948 170.019C339.214 170.019 342.672 166.56 342.672 162.294C342.672 158.029 339.214 154.57 334.948 154.57C330.682 154.57 327.224 158.029 327.224 162.294C327.224 166.56 330.682 170.019 334.948 170.019Z" fill="#16586F"/>
<path d="M368.548 245.465H362.629L359.813 222.637L368.549 222.637L368.548 245.465Z" fill="#FFB8B8"/>
<path d="M358.402 243.774H369.816V250.961H351.215C351.215 250.017 351.401 249.083 351.762 248.211C352.123 247.339 352.652 246.547 353.32 245.879C353.987 245.212 354.779 244.683 355.651 244.321C356.523 243.96 357.458 243.774 358.402 243.774Z" fill="#2F2E41"/>
<path d="M397.996 245.465H392.078L389.262 222.637L397.997 222.637L397.996 245.465Z" fill="#FFB8B8"/>
<path d="M387.85 243.774H399.264V250.961H380.663C380.663 250.017 380.849 249.083 381.21 248.211C381.571 247.339 382.101 246.547 382.768 245.879C383.435 245.212 384.228 244.683 385.1 244.321C385.972 243.96 386.906 243.774 387.85 243.774Z" fill="#2F2E41"/>
<path d="M338.857 163.825C338.431 163.197 338.148 162.484 338.028 161.736C337.907 160.987 337.953 160.221 338.16 159.492C338.368 158.763 338.733 158.088 339.229 157.515C339.726 156.942 340.342 156.485 341.034 156.176L361.154 100.723L371.054 106.126L348.082 159.119C348.524 160.316 348.511 161.634 348.046 162.823C347.581 164.012 346.697 164.989 345.56 165.569C344.422 166.149 343.112 166.292 341.877 165.97C340.641 165.649 339.567 164.885 338.857 163.825Z" fill="#FFB8B8"/>
<path d="M394.972 174.244C394.315 173.867 393.748 173.351 393.311 172.731C392.875 172.111 392.579 171.403 392.446 170.656C392.313 169.91 392.345 169.143 392.54 168.411C392.735 167.678 393.089 166.997 393.576 166.416L387.343 107.756L398.609 108.271L401.2 165.97C402.122 166.853 402.689 168.043 402.792 169.315C402.896 170.588 402.529 171.854 401.761 172.873C400.994 173.893 399.879 174.596 398.627 174.849C397.376 175.102 396.076 174.887 394.972 174.244Z" fill="#FFB8B8"/>
<path d="M377 90.452C383.548 90.452 388.857 85.1434 388.857 78.595C388.857 72.0465 383.548 66.7379 377 66.7379C370.451 66.7379 365.143 72.0465 365.143 78.595C365.143 85.1434 370.451 90.452 377 90.452Z" fill="#FFB8B8"/>
<path d="M394.897 160.903H359.15L359.193 160.625C359.258 160.209 365.564 118.896 360.913 105.38C360.446 104.052 360.487 102.598 361.028 101.298C361.569 99.9986 362.572 98.9449 363.843 98.34H363.843C370.491 95.2091 383.254 91.3539 394.025 100.71C395.61 102.109 396.848 103.858 397.641 105.819C398.433 107.779 398.759 109.897 398.592 112.005L394.897 160.903Z" fill="#16586F"/>
<path d="M366.015 125.002L349.922 121.737L357.466 103.86C357.917 102.129 359.037 100.647 360.579 99.7401C362.122 98.8332 363.961 98.575 365.693 99.0223C367.426 99.4695 368.91 100.586 369.821 102.126C370.732 103.666 370.994 105.505 370.551 107.238L366.015 125.002Z" fill="#16586F"/>
<path d="M386.627 131.064L385.66 108.885C384.926 104.716 387.313 100.775 390.983 100.131C394.655 99.4887 398.24 102.38 398.977 106.58L402.614 127.304L386.627 131.064Z" fill="#16586F"/>
<path d="M393.708 158.248C399.46 180.154 400.087 208.006 398.536 238.386L390.811 237.421L376.811 179.49L369.087 238.386L360.397 237.903C357.801 206.027 355.274 178.662 359.432 160.662L393.708 158.248Z" fill="#2F2E41"/>
<path d="M384.812 87.7584C382.6 90.1146 378.492 88.8498 378.204 85.6308C378.181 85.3809 378.183 85.1294 378.209 84.8798C378.357 83.4539 379.181 82.1594 378.984 80.6539C378.939 80.2792 378.8 79.9221 378.578 79.6165C376.816 77.2562 372.678 80.6722 371.014 78.5355C369.994 77.2253 371.193 75.1624 370.411 73.698C369.377 71.7652 366.317 72.7187 364.398 71.6602C362.263 70.4825 362.391 67.2066 363.796 65.2141C365.51 62.7841 368.516 61.4874 371.484 61.3005C374.451 61.1137 377.399 61.9159 380.169 62.9957C383.317 64.2226 386.439 65.9181 388.377 68.6863C390.733 72.0526 390.959 76.5783 389.781 80.5147C389.064 82.9092 386.618 85.8343 384.812 87.7584Z" fill="#2F2E41"/>
<path d="M487.008 251.191H130.591C130.439 251.191 130.293 251.13 130.185 251.022C130.078 250.915 130.018 250.769 130.018 250.616C130.018 250.464 130.078 250.318 130.185 250.211C130.293 250.103 130.439 250.042 130.591 250.042H487.008C487.161 250.042 487.306 250.103 487.414 250.211C487.521 250.318 487.582 250.464 487.582 250.616C487.582 250.769 487.521 250.915 487.414 251.022C487.306 251.13 487.161 251.191 487.008 251.191Z" fill="#3F3D56"/>
<path d="M307.914 198.501H245.156C244.329 198.506 243.534 198.182 242.946 197.602C242.358 197.021 242.024 196.231 242.018 195.404V55.3226C242.024 54.4961 242.358 53.7058 242.946 53.1252C243.534 52.5446 244.329 52.2211 245.156 52.2255H307.914C308.741 52.2211 309.535 52.5446 310.123 53.1252C310.712 53.7058 311.046 54.4961 311.052 55.3226V195.404C311.046 196.231 310.712 197.021 310.123 197.602C309.535 198.182 308.741 198.506 307.914 198.501Z" fill="white"/>
<path d="M311.052 97.5516H242.018V98.5171H311.052V97.5516Z" fill="#CCCCCC"/>
<path d="M311.293 152.639H242.259V153.605H311.293V152.639Z" fill="#CCCCCC"/>
<path d="M264.707 52.2255H263.741V198.984H264.707V52.2255Z" fill="#CCCCCC"/>
<path d="M288.844 52.2255H287.879V198.984H288.844V52.2255Z" fill="#CCCCCC"/>
</g>
<defs>
<clipPath id="clip0_2879_6783">
<rect width="420" height="251.101" fill="white" transform="translate(81.5 0.328979)"/>
</clipPath>
</defs>
</svg>
