<svg width="30" height="26" viewBox="0 0 30 26" fill="none" xmlns="http://www.w3.org/2000/svg">
<path d="M24.5307 9.87427H22.1921L21.5421 8.24927C20.8741 6.57857 19.28 5.49927 17.4803 5.49927H12.5194C10.7202 5.49927 9.12564 6.57857 8.45728 8.24927L7.80728 9.87427H5.469C5.16392 9.87427 4.94009 10.161 5.01431 10.4567L5.24869 11.3942C5.30064 11.6028 5.48814 11.7493 5.70337 11.7493H6.48736C5.96275 12.2075 5.62486 12.8735 5.62486 13.6243V15.4993C5.62486 16.129 5.86548 16.6973 6.24986 17.1372V19.2493C6.24986 19.9395 6.80963 20.4993 7.49986 20.4993H8.74986C9.4401 20.4993 9.99986 19.9395 9.99986 19.2493V17.9993H19.9999V19.2493C19.9999 19.9395 20.5596 20.4993 21.2499 20.4993H22.4999C23.1901 20.4993 23.7499 19.9395 23.7499 19.2493V17.1372C24.1343 16.6977 24.3749 16.1294 24.3749 15.4993V13.6243C24.3749 12.8735 24.037 12.2075 23.5128 11.7493H24.2968C24.512 11.7493 24.6995 11.6028 24.7514 11.3942L24.9858 10.4567C25.0597 10.161 24.8358 9.87427 24.5307 9.87427ZM10.7784 9.17779C11.0631 8.46607 11.7526 7.99927 12.5194 7.99927H17.4803C18.2471 7.99927 18.9366 8.46607 19.2214 9.17779L19.9999 11.1243H9.99986L10.7784 9.17779ZM8.74986 15.4915C7.99986 15.4915 7.49986 14.993 7.49986 14.2454C7.49986 13.4977 7.99986 12.9993 8.74986 12.9993C9.49986 12.9993 10.6249 14.1208 10.6249 14.8684C10.6249 15.6161 9.49986 15.4915 8.74986 15.4915ZM21.2499 15.4915C20.4999 15.4915 19.3749 15.6161 19.3749 14.8684C19.3749 14.1208 20.4999 12.9993 21.2499 12.9993C21.9999 12.9993 22.4999 13.4977 22.4999 14.2454C22.4999 14.993 21.9999 15.4915 21.2499 15.4915Z" fill="#292F32"/>
</svg>
