<svg width="24" height="24" viewBox="0 0 24 24" fill="none"
  xmlns="http://www.w3.org/2000/svg">
  <path d="M14.4886 5.51178C15.4574 5.57655 16.2954 4.84367 16.3601 3.87482C16.4249 2.90597 15.692 2.06801 14.7232 2.00325C13.7543 1.93849 12.9164 2.67136 12.8516 3.64021C12.7868 4.60907 13.5198 5.44698 14.4886 5.51178Z" fill="#292F32"/>
  <path d="M9.05656 12.9405C8.95382 12.8976 8.85969 12.8427 8.77504 12.7782L7.63396 15.2526L6.77957 14.8586C6.44703 14.7052 6.05317 14.8505 5.89985 15.183L3.64458 20.0736C3.49126 20.4061 3.63649 20.7999 3.96903 20.9533L4.25977 21.0874C4.21106 21.1327 4.17004 21.1879 4.14043 21.2521C4.01871 21.5161 4.13403 21.8287 4.39797 21.9505C4.66195 22.0722 4.9746 21.9569 5.09631 21.6929C5.12588 21.6288 5.14123 21.5617 5.14409 21.4952L5.43482 21.6293C5.76736 21.7826 6.16122 21.6374 6.31453 21.3049L8.56981 16.4143C8.70715 16.1164 8.60442 15.7699 8.34262 15.5906L9.51932 13.0389C9.3646 13.0353 9.20796 13.0038 9.05656 12.9405Z" fill="#292F32"/>
  <path d="M19.8094 9.54686L17.4266 8.94714L16.3504 7.70751L16.3722 7.38217C16.4159 6.72769 15.9208 6.16164 15.2664 6.11789L13.1531 5.97657C12.5226 5.93442 11.9743 6.39246 11.8959 7.01124L12.3787 6.87253L10.4286 7.91443C10.2656 8.00149 10.1377 8.14208 10.0665 8.31254L8.80839 11.3215C8.63749 11.7303 8.8303 12.2002 9.23908 12.3711C9.64525 12.541 10.1166 12.3518 10.2887 11.9404L11.4365 9.19495L13.1348 8.28762L11.8888 9.34053L11.7091 9.77049L11.4823 13.1625L11.4937 13.1633C11.4947 13.2021 11.6084 15.4725 11.6638 16.5866L9.78825 20.6315C9.56458 21.1139 9.77431 21.6862 10.2566 21.9098C10.7389 22.1334 11.3112 21.9237 11.5349 21.4414L13.5104 17.181C13.576 17.0394 13.6063 16.884 13.5985 16.7281L13.4273 13.2926L13.8612 13.3216L14.9264 16.4892L15.3307 21.1202C15.3769 21.6503 15.8443 22.0418 16.3734 21.9955C16.9031 21.9493 17.2949 21.4824 17.2487 20.9528L16.8345 16.2075C16.8278 16.1316 16.8122 16.0566 16.7879 15.9844L15.9392 13.4606L15.9657 13.4623L16.1985 9.97998L16.3804 10.1895C16.488 10.3135 16.6312 10.4015 16.7904 10.4415L19.4179 11.1029C19.8467 11.2109 20.2834 10.9511 20.3917 10.5207C20.4998 10.091 20.2391 9.65502 19.8094 9.54686Z" fill="#292F32"/>
</svg>
