<svg width="95" height="18" viewBox="0 0 95 18" fill="none" xmlns="http://www.w3.org/2000/svg">
<path d="M7.80497 2.2105L6.06132 5.74588L2.16012 6.31463C1.46052 6.4161 1.18015 7.27858 1.68749 7.77258L4.50992 10.5229L3.84236 14.4081C3.7222 15.1103 4.46185 15.6364 5.08134 15.3079L8.57133 13.4735L12.0613 15.3079C12.6808 15.6337 13.4204 15.1103 13.3003 14.4081L12.6327 10.5229L15.4552 7.77258C15.9625 7.27858 15.6821 6.4161 14.9825 6.31463L11.0813 5.74588L9.33768 2.2105C9.02526 1.58033 8.12006 1.57232 7.80497 2.2105Z" fill="#FFA726"/>
<path d="M27.089 2.2105L25.3454 5.74588L21.4442 6.31463C20.7446 6.4161 20.4642 7.27858 20.9715 7.77258L23.794 10.5229L23.1264 14.4081C23.0063 15.1103 23.7459 15.6364 24.3654 15.3079L27.8554 13.4735L31.3454 15.3079C31.9649 15.6337 32.7045 15.1103 32.5843 14.4081L31.9168 10.5229L34.7392 7.77258C35.2466 7.27858 34.9662 6.4161 34.2666 6.31463L30.3654 5.74588L28.6217 2.2105C28.3093 1.58033 27.4041 1.57232 27.089 2.2105Z" fill="#FFA726"/>
<path d="M46.3731 2.2105L44.6294 5.74588L40.7282 6.31463C40.0286 6.4161 39.7483 7.27858 40.2556 7.77258L43.078 10.5229L42.4105 14.4081C42.2903 15.1103 43.03 15.6364 43.6495 15.3079L47.1394 13.4735L50.6294 15.3079C51.2489 15.6337 51.9886 15.1103 51.8684 14.4081L51.2008 10.5229L54.0233 7.77258C54.5306 7.27858 54.2502 6.4161 53.5506 6.31463L49.6494 5.74588L47.9058 2.2105C47.5934 1.58033 46.6882 1.57232 46.3731 2.2105Z" fill="#FFA726"/>
<path d="M65.6571 2.2105L63.9135 5.74588L60.0123 6.31463C59.3127 6.4161 59.0323 7.27858 59.5397 7.77258L62.3621 10.5229L61.6945 14.4081C61.5744 15.1103 62.314 15.6364 62.9335 15.3079L66.4235 13.4735L69.9135 15.3079C70.533 15.6337 71.2726 15.1103 71.1525 14.4081L70.4849 10.5229L73.3073 7.77258C73.8147 7.27858 73.5343 6.4161 72.8347 6.31463L68.9335 5.74588L67.1899 2.2105C66.8774 1.58033 65.9722 1.57232 65.6571 2.2105Z" fill="#FFA726"/>
<path d="M92.1161 6.31864L88.2157 5.75078L86.4727 2.22289C86.316 1.90764 86.0104 1.74829 85.7047 1.74829C85.4009 1.74829 85.0974 1.90551 84.9402 2.22289L83.1966 5.75051L79.2959 6.31784C78.5964 6.4191 78.3161 7.27955 78.8232 7.77254L81.6449 10.5173L80.9771 14.394C80.8823 14.9477 81.3244 15.3919 81.8195 15.3919C81.9508 15.3919 82.0859 15.3607 82.2157 15.292L85.7052 13.4618L89.1945 15.2925C89.324 15.3605 89.4588 15.3914 89.5897 15.3914C90.0853 15.3914 90.5282 14.9488 90.4333 14.3948L89.7663 10.5178L92.5886 7.7736C93.096 7.28062 92.8156 6.4199 92.1161 6.31864ZM88.872 9.60163L88.3892 10.0712L88.5032 10.7342L89.0234 13.7573L86.3019 12.3293L85.7055 12.0164L85.7063 3.56407L87.0661 6.31651L87.3641 6.91954L88.0305 7.01654L91.0745 7.45969L88.872 9.60163Z" fill="#FFA726"/>
</svg>
